<?xml version="1.0" standalone="no"?>
<!DOCTYPE svg PUBLIC "-//W3C//DTD SVG 20010904//EN"
 "http://www.w3.org/TR/2001/REC-SVG-20010904/DTD/svg10.dtd">
<svg version="1.0" xmlns="http://www.w3.org/2000/svg"
 width="578.000000pt" height="578.000000pt" viewBox="0 0 578.000000 578.000000"
 preserveAspectRatio="xMidYMid meet">
<metadata>
Created by potrace 1.14, written by Peter Selinger 2001-2017
</metadata>
<g transform="translate(0.000000,578.000000) scale(0.100000,-0.100000)"
fill="#000000" stroke="none">
<path d="M1532 4265 c1 -14 5 -25 8 -25 8 0 33 -63 31 -77 -1 -7 3 -13 9 -13
5 0 10 -6 10 -14 0 -7 11 -34 25 -60 13 -25 21 -46 17 -46 -4 0 -2 -4 3 -8 6
-4 21 -29 35 -57 14 -27 30 -53 35 -57 6 -4 6 -8 1 -8 -5 0 -4 -6 1 -12 6 -7
22 -34 36 -59 44 -81 52 -94 66 -112 8 -10 16 -24 17 -32 1 -8 9 -22 18 -31 9
-8 16 -20 16 -25 0 -5 5 -15 10 -22 23 -26 160 -239 160 -248 0 -5 4 -9 9 -9
5 0 18 -15 30 -32 11 -18 26 -42 33 -53 7 -11 21 -27 31 -36 9 -9 17 -19 17
-23 0 -4 34 -50 75 -101 41 -52 75 -97 76 -99 0 -3 17 -22 37 -44 68 -71 157
-173 160 -182 2 -6 10 -10 18 -10 8 0 14 -8 14 -17 0 -9 2 -14 5 -12 2 3 38
-27 78 -65 40 -39 93 -87 116 -106 24 -19 57 -47 75 -62 17 -15 34 -28 38 -28
4 0 13 -6 20 -13 19 -19 179 -114 203 -121 13 -4 31 4 52 22 17 15 50 43 74
62 76 62 349 341 349 357 0 3 11 16 25 29 14 13 25 26 25 29 0 4 17 28 38 53
20 26 42 53 47 60 6 7 17 22 27 32 9 10 14 21 11 24 -3 3 2 8 11 12 9 3 16 12
16 20 0 8 5 14 10 14 6 0 10 6 10 13 0 8 9 22 20 32 11 10 20 24 20 31 0 7 4
14 8 16 11 4 129 194 182 293 23 44 47 85 51 91 5 6 6 14 2 17 -3 4 -2 7 4 7
6 0 14 10 18 23 4 12 8 24 9 27 1 3 13 25 26 50 13 25 23 48 22 53 -1 4 2 7 8
7 5 0 10 9 10 20 0 11 5 20 11 20 5 0 8 4 4 9 -3 5 -1 12 5 16 5 3 10 15 10
25 0 10 7 25 15 34 9 8 16 18 15 21 0 3 0 6 1 8 0 1 2 9 4 17 2 8 11 33 21 55
10 22 18 43 18 47 1 3 4 10 9 14 4 4 7 16 7 26 0 10 4 18 8 18 4 0 9 12 10 27
1 15 8 30 15 35 6 4 9 8 4 8 -4 0 -1 16 7 35 18 42 11 44 -29 7 -16 -15 -52
-45 -80 -67 -27 -22 -56 -46 -63 -52 -7 -7 -17 -13 -21 -13 -4 0 -16 -8 -27
-18 -18 -16 -100 -75 -135 -97 -41 -25 -145 -95 -156 -105 -7 -6 -13 -8 -13
-4 0 3 -7 0 -16 -7 -20 -17 -36 -26 -115 -68 -35 -18 -80 -44 -101 -57 -21
-13 -38 -21 -38 -17 0 5 -4 4 -8 -2 -4 -5 -50 -30 -102 -55 -52 -25 -97 -47
-100 -50 -3 -3 -11 -6 -19 -8 -8 -2 -64 -24 -125 -50 -69 -29 -124 -45 -146
-45 -38 2 -228 61 -277 86 -17 9 -33 13 -37 10 -3 -4 -6 -1 -6 6 0 7 -5 9 -11
5 -6 -3 -15 -1 -19 5 -4 7 -13 14 -21 15 -22 4 -93 40 -101 51 -4 6 -8 7 -8 3
0 -6 -40 13 -120 59 -19 11 -62 35 -95 53 -33 19 -85 50 -115 70 -30 19 -67
42 -82 49 -16 8 -28 18 -28 23 0 4 -6 8 -13 8 -7 0 -23 9 -35 20 -12 11 -25
20 -30 20 -4 0 -18 9 -30 20 -12 12 -22 19 -22 16 0 -3 -12 6 -26 19 -15 14
-30 22 -34 20 -5 -3 -10 -1 -12 4 -1 5 -50 44 -108 87 -58 43 -110 82 -116 88
-7 6 -26 22 -44 36 -18 14 -43 35 -56 48 -29 28 -34 28 -32 -3z"/>
<path d="M1457 4195 c-9 -19 -17 -38 -18 -43 0 -4 -7 -14 -15 -23 -8 -9 -11
-19 -7 -22 3 -4 1 -7 -5 -7 -7 0 -12 -9 -12 -19 0 -11 -3 -21 -7 -23 -11 -4
-84 -148 -76 -148 4 0 -2 -7 -13 -15 -10 -8 -15 -15 -11 -15 5 0 -1 -13 -12
-29 -12 -16 -21 -34 -21 -40 0 -6 -4 -11 -8 -11 -5 0 -19 -25 -33 -55 -13 -30
-27 -55 -30 -55 -3 0 -16 -22 -29 -50 -13 -27 -27 -50 -32 -50 -4 0 -8 -9 -8
-20 0 -11 -4 -20 -8 -20 -5 0 -17 -18 -27 -40 -10 -21 -26 -48 -37 -60 -10
-11 -17 -20 -14 -20 3 0 -17 -34 -44 -75 -28 -41 -50 -79 -50 -85 0 -5 -4 -10
-10 -10 -5 0 -10 -4 -10 -9 0 -9 -59 -110 -70 -121 -3 -3 -21 -30 -40 -60 -19
-30 -38 -56 -42 -58 -5 -2 -8 -10 -8 -18 0 -8 -7 -17 -15 -20 -8 -4 -15 -10
-15 -15 0 -14 -139 -221 -158 -236 -9 -7 -13 -13 -9 -13 5 0 3 -6 -3 -12 -6
-7 -28 -38 -50 -68 -22 -30 -44 -60 -50 -67 -19 -23 -10 -50 30 -86 42 -37 65
-39 75 -6 4 10 10 19 15 19 5 0 18 15 29 33 11 17 32 46 45 62 37 43 34 40
121 160 44 61 83 112 87 113 5 2 8 9 8 16 0 7 9 21 20 31 11 10 17 21 15 25
-3 5 -1 10 3 12 11 4 77 102 73 107 -1 2 4 8 13 13 9 5 16 14 16 20 0 6 11 26
25 44 14 18 25 35 25 38 0 4 15 28 33 54 18 26 41 64 52 85 11 20 22 37 25 37
3 0 11 15 19 33 8 17 17 34 21 37 6 4 50 85 117 210 10 19 20 37 23 40 8 8 60
119 59 126 0 4 3 10 8 13 7 5 32 51 38 71 1 3 23 49 48 102 49 101 49 101 20
168 -3 8 -7 17 -7 20 -4 19 -30 70 -35 70 -4 0 -15 -16 -24 -35z"/>
<path d="M4335 4090 c-4 -22 -12 -40 -18 -40 -5 0 -8 -2 -5 -5 3 -3 0 -25 -7
-47 -12 -41 -11 -44 49 -162 33 -67 63 -123 67 -126 3 -3 10 -16 14 -30 4 -14
10 -27 14 -30 3 -3 13 -19 22 -35 38 -74 65 -121 76 -133 6 -6 15 -21 18 -32
3 -11 11 -20 16 -20 5 0 8 -3 7 -7 -3 -9 180 -285 196 -295 6 -4 8 -8 4 -8 -5
0 0 -8 10 -18 23 -26 42 -50 72 -95 14 -20 28 -37 33 -37 4 0 7 -4 7 -10 0 -5
10 -20 23 -33 12 -13 38 -43 57 -67 19 -24 45 -55 58 -69 13 -14 34 -39 49
-57 27 -35 28 -35 115 -7 54 18 57 20 38 33 -11 8 -20 18 -20 23 0 7 -71 96
-129 162 -10 11 -26 35 -36 53 -11 17 -22 32 -26 32 -4 0 -16 15 -28 33 -40
62 -46 71 -68 96 -12 13 -20 28 -17 33 3 4 1 8 -5 8 -5 0 -20 17 -32 38 -13
20 -27 39 -31 40 -4 2 -8 7 -8 12 0 4 -40 69 -90 143 -49 75 -90 141 -90 147
0 5 -4 10 -10 10 -5 0 -10 4 -10 9 0 5 -22 46 -50 91 -27 45 -50 86 -50 91 0
5 -5 9 -11 9 -5 0 -8 4 -5 9 4 5 3 11 -1 13 -9 3 -37 52 -79 136 -15 29 -30
55 -35 58 -5 3 -9 13 -9 23 0 10 -7 24 -15 31 -8 7 -13 16 -10 20 4 6 -30 50
-40 50 -2 0 -6 -18 -10 -40z"/>
<path d="M1475 3271 c-55 -26 -104 -80 -119 -132 -25 -90 -40 -84 206 -87
l218 -2 -6 46 c-6 50 -34 107 -69 140 -55 51 -163 67 -230 35z"/>
<path d="M4192 3234 c-41 -37 -70 -103 -56 -126 6 -10 285 -10 299 0 12 8 13
37 2 48 -4 4 -7 14 -7 23 0 9 -16 31 -34 50 -30 29 -42 34 -98 38 -62 5 -64 5
-106 -33z"/>
<path d="M4136 3070 c-2 -3 -2 -54 -2 -115 l1 -110 70 0 70 0 0 115 0 115 -68
0 c-38 0 -70 -2 -71 -5z"/>
<path d="M4319 3072 c-17 -3 -34 -42 -19 -42 7 0 7 -22 0 -40 -1 -3 -1 -9 0
-15 5 -23 2 -113 -3 -122 -4 -6 23 -10 68 -10 49 -1 75 3 76 11 4 46 3 216 -1
217 -18 3 -108 4 -121 1z"/>
<path d="M1390 3012 l-45 -3 -1 -159 c0 -104 4 -160 11 -161 5 0 49 -1 98 -2
71 -2 87 1 88 13 4 55 3 293 -1 300 -6 9 -88 16 -150 12z"/>
<path d="M1612 3012 c-38 -3 -41 -5 -32 -22 6 -10 6 -21 2 -24 -5 -3 -6 -28
-2 -55 4 -30 2 -55 -4 -61 -7 -7 -6 -10 3 -10 11 0 11 -3 1 -15 -7 -8 -8 -15
-4 -15 13 0 11 -63 -1 -72 -6 -5 -6 -8 1 -8 6 0 9 -10 7 -22 -4 -22 -2 -23 79
-22 46 1 90 2 99 3 13 1 15 23 16 156 0 90 -4 158 -9 161 -11 7 -95 10 -156 6z"/>
<path d="M505 2827 c-33 -17 -62 -34 -65 -37 -3 -3 -25 -18 -50 -34 -42 -27
-179 -156 -166 -156 4 0 -5 -18 -19 -40 -14 -22 -23 -40 -21 -40 2 0 -2 -19
-8 -42 -31 -103 15 -230 119 -330 32 -32 65 -58 72 -58 7 0 13 -4 13 -10 0 -5
7 -10 15 -10 8 0 15 -4 15 -9 0 -8 37 -24 53 -22 4 1 7 -3 7 -8 0 -5 10 -12
23 -16 12 -4 24 -8 27 -9 65 -29 248 -94 268 -96 1 0 3 0 5 -1 1 0 9 -2 17 -4
8 -2 25 -6 38 -9 12 -3 32 -8 45 -11 12 -2 35 -7 50 -11 44 -9 79 -15 110 -17
15 -1 27 -5 27 -8 0 -3 10 -5 23 -4 12 1 36 -2 52 -6 17 -4 55 -10 85 -14 30
-3 69 -8 85 -10 29 -4 141 -12 274 -20 35 -2 66 -6 69 -9 3 -3 11 -1 19 5 7 6
13 8 13 3 0 -14 564 -5 587 9 6 4 14 3 18 -3 4 -6 11 -8 16 -4 6 3 40 8 77 11
91 6 135 10 217 19 39 4 87 7 107 8 21 1 38 3 38 6 0 3 15 6 33 7 66 5 82 8
89 18 5 6 8 6 8 -2 0 -8 9 -9 33 -3 31 9 96 20 147 25 14 2 25 4 25 5 0 2 23
6 80 13 17 2 44 7 60 11 61 13 80 17 100 21 34 5 168 34 195 41 14 3 35 6 48
7 12 1 22 4 22 7 0 3 10 7 23 7 23 2 25 2 97 22 25 7 55 15 67 17 12 2 33 8
47 14 13 5 27 6 30 3 3 -4 6 -1 6 4 0 6 8 10 18 8 9 -1 22 1 27 5 9 6 46 18
81 26 6 1 38 10 70 20 33 10 61 18 64 19 77 22 97 28 106 36 6 5 13 7 16 4 3
-3 26 3 51 14 25 11 48 17 51 14 3 -4 6 0 6 7 0 7 3 11 6 7 4 -3 23 1 43 9 20
9 43 17 51 19 8 2 44 16 80 30 36 14 72 28 80 30 14 4 117 44 170 67 14 6 27
12 30 13 3 1 19 8 35 15 17 7 32 14 35 15 3 0 27 11 54 23 27 12 50 22 51 22
4 0 197 89 215 99 8 4 102 52 207 106 106 54 191 100 189 102 -2 2 -26 -5 -54
-15 -28 -11 -53 -17 -56 -14 -4 3 -6 -1 -6 -8 0 -7 -2 -11 -5 -8 -3 3 -52 -10
-108 -29 -89 -30 -170 -55 -347 -108 -25 -7 -76 -23 -115 -34 -38 -12 -83 -24
-99 -27 -16 -2 -38 -10 -50 -16 -11 -6 -23 -10 -26 -9 -9 3 -105 -21 -116 -30
-6 -5 -13 -6 -17 -3 -3 3 -14 1 -24 -4 -10 -6 -31 -13 -48 -16 -16 -3 -70 -15
-120 -26 -109 -26 -120 -29 -142 -34 -66 -17 -211 -49 -228 -50 -11 -1 -26 -5
-32 -9 -7 -5 -17 -5 -23 -2 -5 3 -16 3 -22 -2 -7 -4 -17 -8 -23 -9 -5 -1 -23
-5 -40 -8 -16 -4 -41 -9 -55 -11 -14 -2 -38 -6 -55 -9 -82 -15 -111 -19 -127
-20 -10 0 -18 -3 -18 -6 0 -3 -15 -5 -32 -4 -18 0 -37 -2 -43 -5 -5 -3 -20 -7
-32 -8 -47 -6 -78 -11 -78 -13 0 -1 -16 -3 -35 -5 -19 -1 -35 -3 -35 -4 0 -2
-16 -4 -35 -6 -42 -4 -106 -13 -140 -20 -14 -2 -54 -7 -90 -10 -36 -3 -83 -8
-105 -10 -22 -2 -69 -6 -105 -9 -36 -4 -81 -8 -100 -11 -19 -3 -82 -7 -140
-10 -58 -3 -139 -8 -180 -11 -80 -5 -596 -7 -717 -2 -39 2 -75 7 -79 11 -4 4
-13 2 -21 -4 -7 -6 -13 -8 -13 -3 0 5 -19 9 -43 10 -23 0 -78 4 -122 8 -44 4
-98 9 -120 11 -22 2 -57 6 -77 9 -21 3 -55 8 -75 11 -20 3 -48 7 -62 10 -14 2
-46 7 -71 10 -65 10 -64 10 -77 18 -7 5 -13 6 -13 4 0 -2 -19 0 -42 5 -24 5
-59 11 -78 14 -19 4 -43 11 -53 16 -10 5 -21 7 -24 4 -4 -3 -12 -1 -20 6 -7 6
-16 8 -20 5 -3 -4 -12 -2 -20 4 -7 6 -13 9 -13 6 0 -8 -188 57 -238 82 -50 25
-131 104 -133 129 -5 65 -4 99 2 112 4 8 17 35 29 59 12 25 56 78 97 118 42
40 74 73 72 72 -2 0 -31 -15 -64 -32z"/>
</g>
</svg>
