<svg width="50" height="40" viewBox="0 0 50 40" fill="none" xmlns="http://www.w3.org/2000/svg">
<path fill-rule="evenodd" clip-rule="evenodd" d="M39.5193 21.3536C38.8714 21.6887 38.2565 22.0887 37.6841 22.5536C36.8288 22.0563 35.949 21.6563 34.9554 21.505C33.1639 21.2347 31.3916 21.332 29.6278 21.6563C28.4586 21.8617 27.2661 21.8725 26.0927 21.7104L25.7724 21.6455C25.6469 21.6239 25.5203 21.5914 25.3927 21.5806C23.8065 21.4185 22.2799 21.0077 20.7873 20.4671C20.5714 20.3914 20.3576 20.305 20.1437 20.2185C19.8522 20.0996 19.5597 19.9806 19.2607 19.8833C18.2607 19.5482 17.2235 19.332 16.1724 19.2455C15.2118 19.159 14.2448 19.1805 13.2873 19.2994C12.0831 19.4724 10.9022 19.7967 9.77242 20.2508C8.86816 20.64 8.01605 21.1482 7.23946 21.7644C6.37137 22.4239 5.63198 23.2347 5.05752 24.1752C4.08093 25.7644 2.87453 27.1481 1.35113 28.2184C1.08091 28.413 0.829902 28.6185 0.570328 28.8347C0.500115 28.8887 0.428786 28.9428 0.356446 29.0077C0.0170836 29.2779 -0.0754608 29.6239 0.0596456 30.0563C0.168156 30.4239 0.294786 30.7914 0.440531 31.159C1.365 33.2887 2.65538 35.1698 4.12985 36.932C4.81815 37.7536 5.5554 38.5319 6.42562 39.1589C6.88732 39.4832 7.07134 39.4725 7.48198 39.105C7.57028 39.0185 7.65964 38.9428 7.74794 38.8563C7.99794 38.6293 8.24796 38.4023 8.5086 38.186C9.69264 37.1914 10.9171 36.2617 12.2841 35.5374C12.949 35.1806 13.7022 35.0292 14.449 35.1048C15.2469 35.1913 16.0331 35.3752 16.7937 35.6347C17.4756 35.8509 18.1544 36.0886 18.8341 36.3157C19.5373 36.5535 20.2405 36.7914 20.9469 37.0185C22.2171 37.4185 23.5097 37.7428 24.849 37.7969C26.4373 37.8725 27.881 37.4833 29.081 36.359C29.4427 36.0131 29.8246 35.6994 30.2097 35.3859C32.981 33.1373 35.9841 31.2131 39.1661 29.6347C40.2427 29.0941 41.1203 28.2941 41.999 27.4833C42.8118 26.7374 43.6256 25.9914 44.599 25.4617C45.6427 24.8887 46.6714 24.2833 47.6958 23.6779C48.2895 23.3536 48.8203 22.9104 49.2629 22.3914C49.5352 22.0563 49.7437 21.6996 49.7544 21.2347C49.7799 20.1644 49.081 19.2023 48.0618 18.9212C47.1065 18.6617 46.1437 18.759 45.1905 18.9536C43.4278 19.332 41.799 20.0778 40.2107 20.9211C40.099 20.9751 39.9937 21.0509 39.8884 21.1266C39.7693 21.2131 39.649 21.2887 39.5193 21.3536ZM24.5373 28.9752C24.5118 28.9428 24.5044 28.9104 24.5831 28.8131C25.2895 28.3698 26.1501 28.2292 27.0193 28.2076C27.8395 28.1751 28.6607 28.1968 29.4767 28.2941C30.4363 28.4239 31.398 28.4021 32.3671 28.3481C32.7288 28.3265 33.0916 28.3158 33.4533 28.305C34.4022 28.2725 35.3512 28.2292 36.2937 28.0886C36.9618 27.9805 37.6193 27.84 38.2331 27.5373C38.5363 27.4076 38.8118 27.2131 39.0427 26.9752C39.5395 26.4131 39.6427 25.7644 39.4054 25.0509C39.2129 24.4347 38.9076 23.8617 38.5054 23.3644C38.6395 23.2779 38.7682 23.1914 38.8937 23.105C39.1629 22.9212 39.4193 22.7482 39.6831 22.586C41.1895 21.6779 42.732 20.8455 44.4171 20.3266C45.3459 20.0455 46.2884 19.8509 47.2682 19.9266C47.7884 19.9698 48.2203 20.1427 48.4863 20.64C48.6746 20.9967 48.6586 21.3212 48.4022 21.6239C48.1299 21.9482 47.8118 22.2293 47.4597 22.4671C46.6278 23.0185 45.7522 23.4941 44.8746 23.9698C44.7214 24.0563 44.5682 24.132 44.4139 24.2185C44.1171 24.3806 43.8224 24.5536 43.5373 24.7482C42.9661 25.1374 42.4927 25.6023 42.015 26.0779C41.6437 26.4455 41.2693 26.8239 40.8448 27.159C39.9054 27.905 38.849 28.467 37.8001 29.0292C37.7671 29.0508 37.7331 29.0617 37.7001 29.0833C34.3799 30.8563 31.2331 32.9104 28.4054 35.4293C27.2097 36.4887 25.8576 36.7806 24.3416 36.6077C22.7129 36.4239 21.1714 35.894 19.631 35.3751C19.548 35.3427 19.465 35.3104 19.382 35.2887L18.7416 35.0617C17.5756 34.6617 16.4107 34.2617 15.1895 34.0563C13.915 33.8401 12.698 33.9374 11.5373 34.6185C10.1958 35.4077 8.92349 36.3158 7.73306 37.3212C7.54051 37.4833 7.35219 37.6454 7.16602 37.8184C7.08091 37.8832 6.99582 37.959 6.91071 38.0347C4.98093 36.7266 1.63094 31.9589 1.2086 29.84C1.39264 29.6021 1.64267 29.4185 1.89161 29.2563C1.9565 29.2023 2.02138 29.159 2.08628 29.1158C3.62777 28.0023 4.93307 26.586 5.9235 24.9536C6.63201 23.7968 7.59905 22.8238 8.74586 22.1319C9.95437 21.3751 11.2884 20.8455 12.682 20.5752C14.0618 20.305 15.4746 20.2832 16.8607 20.5103C17.8469 20.6616 18.831 20.8779 19.7522 21.2996C21.0044 21.8725 22.3224 22.2185 23.6661 22.4671C24.5427 22.6401 25.4203 22.7914 26.3097 22.8887C27.4927 23.0185 28.6703 23.0832 29.8437 22.813C31.2363 22.5103 32.6639 22.4131 34.0841 22.5212C35.0352 22.5752 35.9597 22.8671 36.7767 23.3644C37.5044 23.8077 38.049 24.5104 38.3118 25.332C38.4916 25.8725 38.3852 26.1536 37.8852 26.4347C37.3639 26.705 36.799 26.8779 36.2182 26.9428C35.1182 27.105 34.0065 27.1914 32.8937 27.1806C32.6001 27.159 32.3065 27.1806 32.0161 27.2131C31.3267 27.3212 30.6448 27.2563 29.9629 27.1806C29.7927 27.1698 29.6235 27.1481 29.4544 27.1373C28.2352 27.0292 27.015 26.986 25.8001 27.1806C24.9022 27.332 24.0682 27.6347 23.398 28.2941C22.9054 28.7806 23.0341 29.6131 23.6288 29.8833C23.915 30.0347 24.2618 29.9698 24.4873 29.7428C24.698 29.5374 24.7193 29.2023 24.5373 28.9752Z" fill="white"/>
<path d="M18.4872 6.27302L19.5096 5.2244C19.3819 4.69467 19.2436 4.12164 19.1075 3.54867C19.0638 3.40813 19.0298 3.25676 19.0075 3.11622C18.9596 2.65135 19.0926 2.26216 19.5149 2.03514C19.85 1.84054 20.1841 1.64592 20.5255 1.47295C21.0553 1.21349 21.4521 1.27845 21.8606 1.71089C22.2989 2.18656 22.7309 2.66219 23.1766 3.14868L24.5128 2.79197C24.7606 2.18656 24.8777 1.54862 25.0681 0.92159C25.2947 0.208077 25.5394 0.00269743 26.2926 0.00269743C26.6223 0.00269743 26.9511 -0.00810283 27.2798 0.0135188C27.8532 0.056762 28.1692 0.348617 28.3053 0.92159C28.4543 1.54862 28.5968 2.18648 28.7436 2.83512L30.083 3.2243C30.5564 2.75944 31.0575 2.32709 31.4958 1.82979C31.8819 1.40817 32.5213 1.3433 32.9798 1.68924C33.1989 1.85141 33.4458 1.98117 33.6777 2.12171C34.3351 2.54333 34.4585 2.91083 34.2255 3.6784C34.0862 4.13245 33.9479 4.59735 33.8043 5.06222C33.7543 5.20276 33.7426 5.36483 33.7713 5.51618C33.8745 5.60267 34.0585 5.75402 34.2298 5.91618C34.4011 6.07835 34.5319 6.24061 34.7053 6.42439C35.266 6.28385 35.8298 6.1433 36.3936 6.01357C36.5511 5.97032 36.7117 5.92711 36.8734 5.90549C37.2851 5.84063 37.6904 6.05683 37.8766 6.43521C38.0638 6.77035 38.2532 7.11624 38.4245 7.46218C38.6841 8.00272 38.6096 8.40273 38.1777 8.82436C37.717 9.2676 37.2479 9.71083 36.7787 10.1649L37.1223 11.5596C37.7021 11.7325 38.2755 11.9054 38.8521 12.0676C39.6766 12.2946 39.8958 12.5974 39.8596 13.4623C39.85 13.7001 39.8532 13.9486 39.8394 14.1865C39.7894 15.0189 39.5787 15.2676 38.8 15.4514C38.2511 15.5811 37.6979 15.7 37.1255 15.8297C36.9181 16.2622 36.866 16.7486 36.7043 17.2135C37.0745 17.6676 37.4841 18.1 37.9266 18.4892C38.5043 19.0081 38.617 19.5703 38.1553 20.2622C37.8713 20.6838 37.717 21.2027 37.2053 21.5162C36.0043 20.9 34.6692 20.7486 33.333 20.5865C33.3426 20.5324 33.333 20.4892 33.3564 20.4676C33.6553 20.1973 33.9585 19.927 34.3202 19.6135L36.6606 20.3379C36.9149 20.1001 37.0298 19.8189 37.166 19.5162C36.6447 18.7703 35.9255 18.2081 35.3585 17.473C35.6936 16.6405 35.933 15.7649 36.0702 14.8676L38.6341 14.2623C38.7128 13.9488 38.6989 13.6351 38.683 13.2568L36.0883 12.4784C35.9702 11.5811 35.7436 10.7054 35.4117 9.86215C36.016 9.19188 36.7202 8.62972 37.3638 7.97026L36.9011 7.09465L34.2692 7.76492C33.7043 7.06222 33.0723 6.41352 32.3809 5.82974L33.1372 3.26758C32.917 2.9865 32.6192 2.88918 32.3372 2.69458L30.3872 4.5973C29.5479 4.28378 28.7075 3.99185 27.7841 3.88374C27.5872 3.00806 27.3926 2.14329 27.1979 1.26761C26.8915 1.11626 26.5819 1.19197 26.2468 1.17035C25.8968 2.0244 25.7606 2.93246 25.4426 3.82976C24.5926 4.00274 23.7181 4.16494 22.8872 4.54332C22.2138 3.93791 21.6809 3.22432 21.0458 2.57568C20.7319 2.67297 20.4681 2.8568 20.1681 3.02977C20.3872 3.92707 20.6075 4.80273 20.8266 5.72165C20.1149 6.27301 19.4745 6.92169 18.9181 7.64601L16.3894 6.85671C16.1702 7.08374 16.0426 7.37565 15.8543 7.68917L17.7309 9.67845C17.4511 10.5217 17.1287 11.3649 17.0479 12.2946C16.1819 12.5865 15.3138 12.6946 14.4617 12.9432C14.3128 13.2351 14.416 13.5595 14.3883 13.9162C15.217 14.2405 16.0936 14.4135 16.9766 14.7162C17.1489 15.5811 17.3138 16.4676 17.6755 17.3541L16.3947 18.5866C15.9223 18.4461 15.4277 18.5324 14.8894 18.4784C15.3128 17.8946 15.8766 17.527 16.3149 17.0297L15.9564 15.6459C15.3585 15.4622 14.75 15.2676 14.1351 15.1162C13.4766 14.9541 13.1713 14.4785 13.2426 13.8515C13.2777 13.5379 13.25 13.2244 13.2617 12.9109C13.2872 12.2623 13.5106 11.9703 14.1394 11.8081C14.6872 11.6676 15.2362 11.5488 15.7904 11.419C15.8596 11.4082 15.9266 11.3757 16.0106 11.3432L16.3755 9.99188L15.0596 8.56491C14.5734 8.04599 14.5266 7.64593 14.883 7.01891C15.0372 6.73783 15.1979 6.46756 15.3649 6.2081C15.6947 5.67837 16.0872 5.53785 16.6809 5.70001C17.2926 5.88379 17.8968 6.08923 18.4872 6.27302Z" fill="white"/>
<path fill-rule="evenodd" clip-rule="evenodd" d="M32.3045 18.2944C33.3406 16.8998 33.897 15.343 33.897 13.3538C33.8758 11.5484 33.1917 9.77549 31.7789 8.31603C28.9428 5.37549 24.2747 5.31053 21.3949 8.21864C19.6375 9.99161 18.9364 12.1647 19.2651 14.6728C19.5279 16.6945 20.4949 18.316 22.0311 19.5592C22.8534 20.2295 23.7789 20.7808 24.8928 20.8241C25.0375 20.8349 25.18 20.8673 25.3194 20.9106C26.6087 21.17 27.8853 21.1592 29.1311 20.6511C30.3768 20.143 31.4747 19.4187 32.3045 18.2944ZM20.3311 13.7106C20.2619 9.95926 23.2162 7.32134 26.4024 7.26729C29.8024 7.20242 32.6141 9.94843 32.7087 13.4187C32.8034 16.889 30.1438 19.7863 26.747 19.9268C23.3758 20.0133 20.3938 17.3971 20.3311 13.7106Z" fill="white"/>
</svg>
