<svg width="50" height="50" viewBox="0 0 50 50" fill="none" xmlns="http://www.w3.org/2000/svg">
<g clip-path="url(#clip0)">
<path d="M20.8449 3.34314C11.1836 3.34314 3.35156 11.1752 3.35156 20.8365C3.35156 30.4978 11.1836 38.3299 20.8449 38.3299C30.5063 38.3299 38.3383 30.4978 38.3383 20.8365C38.3278 11.1795 30.5019 3.35366 20.8449 3.34314ZM20.8449 5.00917C25.9905 5.01324 30.8123 7.52103 33.77 11.7316L31.6875 13.8142C31.1807 13.5075 30.6005 13.3434 30.0081 13.3393C28.1679 13.3393 26.6761 14.8312 26.6761 16.6714C26.679 17.2644 26.8421 17.8456 27.1484 18.3533L21.6938 23.8079C20.6609 23.1781 19.3629 23.1781 18.33 23.8079L14.5415 20.0193C14.8477 19.5116 15.0109 18.9305 15.0138 18.3375C15.0161 16.5009 13.5292 15.0102 11.6926 15.0079C10.1737 15.006 8.84656 16.0334 8.46796 17.5044H5.37746C6.95468 10.2211 13.3928 5.02011 20.8449 5.00917ZM31.6742 16.6714C31.6742 17.5916 30.9283 18.3375 30.0081 18.3375C29.0879 18.3375 28.3421 17.5916 28.3421 16.6714C28.3421 15.7512 29.0879 15.0054 30.0081 15.0054C30.9283 15.0054 31.6742 15.7512 31.6742 16.6714ZM21.6779 26.6676C21.6779 27.5878 20.9321 28.3337 20.0119 28.3337C19.0917 28.3337 18.3459 27.5878 18.3459 26.6676C18.3459 25.7475 19.0917 25.0016 20.0119 25.0016C20.9321 25.0016 21.6779 25.7475 21.6779 26.6676ZM13.3478 18.3375C13.3478 19.2576 12.6019 20.0035 11.6817 20.0035C10.7616 20.0035 10.0157 19.2576 10.0157 18.3375C10.0157 17.4173 10.7616 16.6714 11.6817 16.6714C12.6019 16.6714 13.3478 17.4173 13.3478 18.3375ZM28.5351 34.6756C26.1827 35.9818 23.5358 36.6661 20.8449 36.6637C12.1097 36.6697 5.02353 29.5933 5.0176 20.8581C5.01718 20.2943 5.04696 19.7309 5.10673 19.1704H8.46796C8.84667 20.637 10.167 21.6637 11.6817 21.6694C12.2747 21.6665 12.8559 21.5033 13.3636 21.1971L17.1522 24.9857C16.8459 25.4934 16.6828 26.0745 16.6798 26.6675C16.6798 28.5078 18.1717 29.9996 20.0119 29.9996C21.8522 29.9996 23.344 28.5078 23.344 26.6675C23.3411 26.0745 23.1779 25.4934 22.8717 24.9857L28.3263 19.5311C28.834 19.8373 29.4151 20.0005 30.0081 20.0034C31.8484 20.0034 33.3402 18.5116 33.3402 16.6713C33.3373 16.0783 33.1741 15.4972 32.8679 14.9895L34.6838 13.1743C38.9234 20.8097 36.1705 30.4362 28.5351 34.6756Z" fill="white"/>
<path d="M41.6698 8.34121C43.1845 8.33549 44.5049 7.30889 44.8836 5.84216H50V4.17612H44.8836C44.5049 2.70939 43.1845 1.6828 41.6698 1.67707C39.8296 1.67707 38.3377 3.1689 38.3377 5.00914C38.3406 5.60215 38.5038 6.18328 38.81 6.691L37.3464 8.15462C30.3434 -0.969112 17.27 -2.68825 8.14625 4.31482C-0.977474 11.3179 -2.69661 24.3914 4.30646 33.5151C10.9169 42.1272 23.0343 44.2163 32.1467 38.3148L34.6608 40.8289L35.8387 42.0068L42.5445 48.7126C44.25 50.4181 47.015 50.4181 48.7205 48.7126C50.4259 47.0071 50.4259 44.2421 48.7205 42.5366L42.0147 35.8308L40.8368 34.6529L38.3227 32.1389C42.7855 25.2648 42.7855 16.4083 38.3227 9.53409L39.9888 7.86806C40.4962 8.1744 41.0771 8.33788 41.6698 8.34121ZM41.6698 3.34311C42.59 3.34311 43.3358 4.08897 43.3358 5.00914C43.3358 5.92931 42.59 6.67518 41.6698 6.67518C40.7496 6.67518 40.0038 5.92931 40.0038 5.00914C40.0038 4.08897 40.7497 3.34311 41.6698 3.34311ZM47.5426 43.7145C48.6094 44.7574 48.6289 46.4678 47.586 47.5347C46.543 48.6016 44.8327 48.621 43.7658 47.5781C43.7511 47.5638 43.7367 47.5494 43.7223 47.5347L37.0166 40.8289L40.8368 37.0087L47.5426 43.7145ZM39.6589 35.8308L35.8387 39.651L33.5329 37.3452C33.6503 37.2552 33.7603 37.1561 33.8761 37.0637C33.9919 36.9712 34.126 36.8604 34.2501 36.7563C34.4325 36.603 34.6125 36.4481 34.7891 36.289C34.8799 36.2056 34.9665 36.1223 35.0556 36.039C35.3972 35.7192 35.7279 35.3885 36.0478 35.0469C36.1311 34.9578 36.2144 34.8712 36.2977 34.7804C36.4568 34.6038 36.6117 34.4238 36.765 34.2414C36.8694 34.1181 36.9719 33.9935 37.0724 33.8674C37.164 33.7524 37.2631 33.6425 37.3531 33.525L39.6589 35.8308ZM36.4284 31.9614C36.166 32.328 35.8953 32.687 35.6096 33.0327C35.5263 33.1335 35.4372 33.2309 35.3514 33.3301C35.0965 33.6266 34.8332 33.9143 34.5617 34.1931C34.4434 34.3152 34.3231 34.4355 34.201 34.5538C33.9232 34.8253 33.6356 35.0886 33.3379 35.3435C33.2388 35.4268 33.1414 35.5176 33.0406 35.6017C32.6949 35.8874 32.3358 36.1582 31.9693 36.4206C23.3459 42.5813 11.361 40.5848 5.20029 31.9614C-0.960397 23.338 1.03603 11.3531 9.65943 5.19241C18.2828 -0.968279 30.2678 1.02805 36.4284 9.65155C41.1955 16.3242 41.1955 25.2887 36.4284 31.9614Z" fill="white"/>
</g>
<defs>
<clipPath id="clip0">
<rect width="50" height="50" fill="white"/>
</clipPath>
</defs>
</svg>
