<svg width="50" height="50" viewBox="0 0 50 50" fill="none" xmlns="http://www.w3.org/2000/svg">
<path d="M49.3579 33.6094L41.8437 26.0941C43.6591 23.7019 44.7925 20.8344 45.0831 17.8281C45.4391 14.1385 44.5201 10.4108 42.4953 7.33119C42.2729 6.99321 41.8185 6.89937 41.4809 7.12176C41.143 7.34416 41.0491 7.79849 41.2715 8.13647C45.1034 13.9638 44.2996 21.7789 39.3603 26.7186C33.5914 32.4879 24.2054 32.4879 18.4368 26.7186C12.6678 20.9492 12.6678 11.5617 18.4368 5.79234C24.2054 0.0230064 33.5918 0.0230064 39.3584 5.79044L39.3985 5.83087C39.6838 6.11774 40.1473 6.11964 40.4342 5.8343C40.7214 5.54935 40.723 5.08548 40.438 4.79862L40.396 4.75627C34.056 -1.58412 23.7407 -1.58412 17.4007 4.75627C17.2016 4.9554 17.0089 5.15834 16.8224 5.3651H0.73242C0.328063 5.3651 0 5.69316 0 6.09752V9.33695C0 9.74169 0.328063 10.0698 0.73242 10.0698C1.13716 10.0698 1.46484 9.74169 1.46484 9.33695V6.83032H15.6475C15.0879 7.61653 14.6064 8.44126 14.2032 9.29461H5.07811C4.67376 9.29461 4.34569 9.62229 4.34569 10.027C4.34569 10.4318 4.67376 10.7595 5.07811 10.7595H13.5971C13.3869 11.3477 13.2118 11.9454 13.0714 12.5501H5.07811C4.67376 12.5501 4.34569 12.8777 4.34569 13.2825C4.34569 13.6868 4.67376 14.0149 5.07811 14.0149H12.8006C12.7186 14.6089 12.6693 15.2066 12.6529 15.8051H5.07811C4.67376 15.8051 4.34569 16.1332 4.34569 16.5379C4.34569 16.9423 4.67376 17.2704 5.07811 17.2704H12.6785C12.8105 19.3982 13.3564 21.5047 14.3181 23.4566H13.0863C12.6816 23.4566 12.3539 23.7847 12.3539 24.1894V45.8721C12.3539 46.2769 12.6816 46.6049 13.0863 46.6049H18.9457C19.3504 46.6049 19.6781 46.2769 19.6781 45.8721V29.6517C20.3376 30.106 21.0231 30.5066 21.7289 30.8526V45.8721C21.7289 46.2769 22.0569 46.6049 22.4613 46.6049H28.3206C28.7254 46.6049 29.0531 46.2769 29.0531 45.8721V32.5085C29.6241 32.5028 30.1944 32.4681 30.7624 32.4032V43.7172C30.7624 44.122 31.0901 44.45 31.4948 44.45C31.8992 44.45 32.2273 44.122 32.2273 43.7172V32.1675C34.5424 31.6868 36.7721 30.6988 38.7366 29.2031L46.2493 36.7169C46.6647 37.1319 47.2167 37.3608 47.8034 37.3608C48.3905 37.3608 48.9425 37.1319 49.3575 36.7169C50.2139 35.8609 50.2143 34.467 49.3579 33.6094V33.6094ZM18.2132 45.1397H13.8187V24.9219H15.1382C15.7718 25.9278 16.5256 26.8792 17.4007 27.7547C17.6647 28.0186 17.9363 28.2708 18.2132 28.5126V45.1397ZM23.1941 45.1397V31.4828C24.6147 32.0126 26.0948 32.3369 27.5886 32.4566V45.1397H23.1941ZM48.3222 35.6808C48.1837 35.8193 47.9995 35.8956 47.8038 35.8956C47.6081 35.8956 47.4238 35.8193 47.2857 35.6808L39.8658 28.2605C40.0455 28.0961 40.2225 27.9282 40.396 27.7547C40.5692 27.5815 40.7378 27.4048 40.9022 27.2244L48.3214 34.6451C48.6072 34.9309 48.6075 35.3959 48.3222 35.6808V35.6808Z" fill="white"/>
<path d="M31.4949 46.1422C31.0905 46.1422 30.7625 46.4699 30.7625 46.8746V48.5352H1.46484V12.5107C1.46484 12.1059 1.13716 11.7783 0.732422 11.7783C0.328064 11.7783 0 12.1059 0 12.5107V49.2676C0 49.6723 0.328064 50 0.732422 50H31.4949C31.8996 50 32.2273 49.6723 32.2273 49.2676V46.8746C32.2273 46.4699 31.8996 46.1422 31.4949 46.1422V46.1422Z" fill="white"/>
<path d="M3.17383 30.0483V45.8713C3.17383 46.2757 3.50189 46.6037 3.90625 46.6037H9.76601C10.1704 46.6037 10.4984 46.2757 10.4984 45.8713V30.0483C10.4984 29.644 10.1704 29.3159 9.76601 29.3159H3.90625C3.50189 29.3159 3.17383 29.644 3.17383 30.0483V30.0483ZM4.63867 30.7811H9.03358V45.1385H4.63867V30.7811Z" fill="white"/>
<path d="M10.5549 20.5258C10.9596 20.5258 11.2873 20.1977 11.2873 19.793C11.2873 19.3886 10.9596 19.0605 10.5549 19.0605H5.07812C4.67377 19.0605 4.3457 19.3886 4.3457 19.793C4.3457 20.1977 4.67377 20.5258 5.07812 20.5258H10.5549Z" fill="white"/>
<path d="M28.899 2.92853C25.3345 2.92853 21.9867 4.31326 19.4728 6.82753C16.959 9.3418 15.5742 12.69 15.5742 16.2548C15.5742 19.8196 16.959 23.1678 19.4728 25.6821C21.9871 28.1963 25.3345 29.5811 28.899 29.5811C32.4634 29.5811 35.8108 28.1963 38.3251 25.6821C40.839 23.1678 42.2233 19.8196 42.2233 16.2548C42.2233 12.69 40.839 9.3418 38.3251 6.82753C35.8108 4.31326 32.4634 2.92853 28.899 2.92853V2.92853ZM37.289 24.646C35.0517 26.8837 32.072 28.1158 28.899 28.1158C25.7255 28.1158 22.7462 26.8837 20.5089 24.646C18.2712 22.4083 17.0391 19.4282 17.0391 16.2548C17.0391 13.081 18.2712 10.1009 20.5089 7.86322C22.8218 5.54999 25.8605 4.39299 28.899 4.39299C31.9374 4.39299 34.9762 5.54999 37.289 7.86322C39.5263 10.1009 40.7585 13.081 40.7585 16.2548C40.7585 19.4282 39.5263 22.4083 37.289 24.646V24.646Z" fill="white"/>
</svg>
