<svg width="512" height="512" viewBox="0 0 512 512" fill="none" xmlns="http://www.w3.org/2000/svg">
<path d="M494.658 182.503C488.96 176.888 481.197 173.419 472.609 173.419H140.387H39.3907C22.2139 173.419 8.25781 187.376 8.25781 204.552C8.25781 205.791 8.34039 207.112 8.50555 208.351L37.9043 443.458C39.8036 459.066 53.0991 470.71 68.7068 470.71H115.613L161.94 501.595C164.005 502.999 166.482 503.742 168.96 503.742C175.979 503.742 181.677 498.044 181.677 491.025V470.71H443.293C458.9 470.71 472.196 459.066 474.095 443.458L503.494 208.351C503.659 207.112 503.742 205.791 503.742 204.552C503.742 195.964 500.273 188.201 494.658 182.503Z" fill="#FFE179"/>
<path d="M123.872 363.355H125.441C136.094 363.355 146.581 364.263 156.904 366.162V437.677H123.872L107.355 363.355H123.872Z" fill="#AAB2BD"/>
<path d="M239.484 222.968V404.645C215.618 384.743 187.128 371.53 156.903 366.163C146.581 364.263 136.093 363.355 125.44 363.355H123.871V264.258H125.44C167.143 264.258 207.443 249.641 239.484 222.968Z" fill="#6BCDFE"/>
<path d="M272.517 346.839V404.645C272.517 413.729 265.084 421.161 256.001 421.161C246.917 421.161 239.484 413.729 239.484 404.645V222.968C239.484 213.884 246.917 206.452 256.001 206.452C260.542 206.452 264.671 208.268 267.644 211.324C270.7 214.297 272.517 218.426 272.517 222.968V280.774V346.839Z" fill="white"/>
<path d="M123.871 264.258V363.355H107.355H90.8389C72.5886 363.355 57.8066 348.573 57.8066 330.323V297.29C57.8066 279.04 72.5886 264.258 90.8389 264.258H123.871Z" fill="#F58A97"/>
<path d="M272.516 280.774C290.766 280.774 305.548 295.556 305.548 313.806C305.548 332.057 290.766 346.839 272.516 346.839V280.774Z" fill="#F58A97"/>
<path d="M222.968 74.3226V123.871C222.968 132.955 215.536 140.387 206.452 140.387H140.387H74.3228C65.2389 140.387 57.8066 132.955 57.8066 123.871V24.7742C57.8066 15.6903 65.2389 8.25806 74.3228 8.25806H206.452C215.536 8.25806 222.968 15.6903 222.968 24.7742V74.3226Z" fill="#8FD8FA"/>
<path d="M166.07 62.3483C170.53 64.6606 173.42 69.2851 173.42 74.3225C173.42 79.36 170.53 83.9845 166.07 86.2967L126.679 105.951C124.863 106.859 122.798 107.355 120.734 107.355C113.301 107.355 107.355 101.409 107.355 93.9767V54.6683C107.355 47.2361 113.301 41.2903 120.734 41.2903C122.798 41.2903 124.863 41.7858 126.679 42.6942L166.07 62.3483Z" fill="#FF826E"/>
<path d="M454.194 90.8386V123.871H404.646H355.098V90.8386H454.194Z" fill="#FFEAA7"/>
<path d="M404.646 123.871V256H355.098V173.419V123.871H404.646Z" fill="#B4DD7F"/>
<path d="M454.193 173.419V256H404.645V123.871H454.193V173.419Z" fill="#FF826E"/>
<path d="M454.194 41.2903V90.8387H355.098V74.3226V41.2903C355.098 23.04 369.88 8.25806 388.13 8.25806H421.162C439.412 8.25806 454.194 23.04 454.194 41.2903Z" fill="#6377E9"/>
<path d="M416.62 331.231C414.308 335.69 409.683 338.581 404.646 338.581C399.609 338.581 394.984 335.69 392.672 331.231L355.098 256H404.646H454.194L416.62 331.231Z" fill="#6377E9"/>
<path d="M472.642 165.161H462.452V41.2903C462.452 18.5228 443.929 0 421.161 0H388.129C365.362 0 346.839 18.5228 346.839 41.2903V66.0645H231.226V24.7742C231.226 11.1154 220.11 0 206.452 0H74.3226C60.6637 0 49.5484 11.1154 49.5484 24.7742V123.871C49.5484 137.53 60.6637 148.645 74.3226 148.645H132.129V165.161H39.3579C17.6557 165.161 0 182.817 0 204.519C0 206.154 0.107354 207.789 0.305548 209.4L29.696 444.499C32.1486 464.153 48.9373 478.968 68.7401 478.968H113.111L157.39 508.49C160.851 510.786 164.864 512 169.001 512C180.538 512 189.935 502.602 189.935 491.058V478.968H443.26C463.063 478.968 479.86 464.153 482.312 444.499L511.703 209.408C511.893 207.781 512 206.154 512 204.519C512 182.817 494.344 165.161 472.642 165.161V165.161ZM400.078 327.498L368.458 264.258H440.832L409.212 327.498C407.469 330.991 401.821 330.983 400.078 327.498ZM445.935 115.613H363.355V99.0968H445.935V115.613ZM363.355 247.742V132.129H396.387V247.742H363.355ZM445.935 247.742H412.903V132.129H445.935V247.742ZM388.129 16.5161H421.161C434.82 16.5161 445.935 27.6315 445.935 41.2903V82.5806H363.355V41.2903C363.355 27.6315 374.47 16.5161 388.129 16.5161ZM66.0645 123.871V24.7742C66.0645 20.224 69.7641 16.5161 74.3226 16.5161H206.452C211.01 16.5161 214.71 20.224 214.71 24.7742V123.871C214.71 128.421 211.01 132.129 206.452 132.129H74.3226C69.7641 132.129 66.0645 128.421 66.0645 123.871ZM148.645 148.645H206.452C220.11 148.645 231.226 137.53 231.226 123.871V82.5806H346.839V165.161H148.645V148.645ZM495.31 207.343L465.92 442.442C464.491 453.847 454.747 462.452 443.26 462.452H173.419V491.058C173.419 494.369 169.282 496.557 166.54 494.741L118.115 462.452H68.7401C57.2449 462.452 47.5086 453.847 46.08 442.451L16.6895 207.343C16.5739 206.402 16.5161 205.461 16.5161 204.519C16.5161 191.926 26.7561 181.677 39.3579 181.677H346.839V257.949L383.026 330.323H338.581V346.839H404.645C412.887 346.839 420.294 342.255 423.986 334.889L462.452 257.949V181.677H472.642C485.244 181.677 495.484 191.926 495.484 204.519C495.484 205.461 495.426 206.402 495.31 207.343V207.343Z" fill="black"/>
<path d="M280.775 273.35V222.968C280.775 209.309 269.659 198.194 256 198.194C243.853 198.194 233.77 206.997 231.672 218.541C201.596 242.663 164.047 256 125.432 256H90.8391C68.0717 256 49.5488 274.523 49.5488 297.29V330.323C49.5488 353.09 68.0717 371.613 90.8391 371.613H100.732L117.257 445.936H165.162V376.469C189.333 382.299 212.092 393.356 231.672 409.063C233.77 420.616 243.853 429.419 256 429.419C269.659 429.419 280.775 418.304 280.775 404.645V354.263C299.595 350.423 313.807 333.75 313.807 313.807C313.807 293.863 299.595 277.19 280.775 273.35ZM132.129 272.219C167.614 270.931 202.075 259.625 231.226 239.55V388.063C202.075 367.988 167.614 356.674 132.129 355.394V272.219ZM67.5844 338.581H99.0972V322.065H66.065V305.548H99.0972V289.032H67.5844C71.0033 279.445 80.0871 272.516 90.8391 272.516H115.613V355.097H90.8391C80.0871 355.097 71.0033 348.168 67.5844 338.581ZM148.646 429.419H130.494L117.653 371.613H125.44C133.244 371.613 140.982 372.307 148.654 373.372V429.419H148.646ZM264.258 404.645C264.258 409.195 260.559 412.903 256 412.903C251.442 412.903 247.742 409.195 247.742 404.645V222.968C247.742 218.418 251.442 214.71 256 214.71C260.559 214.71 264.258 218.418 264.258 222.968V404.645ZM280.775 337.061V290.56C290.362 293.979 297.291 303.063 297.291 313.815C297.291 324.567 290.362 333.642 280.775 337.061Z" fill="black"/>
<path d="M169.729 54.9822L130.387 35.3115C127.406 33.825 124.054 33.0322 120.717 33.0322C108.801 33.0322 99.0977 42.7272 99.0977 54.6518V93.9933C99.0977 105.918 108.801 115.613 120.717 115.613C124.054 115.613 127.406 114.82 130.387 113.334L169.729 93.6629C177.095 89.9798 181.678 82.5641 181.678 74.3225C181.678 66.081 177.095 58.6653 169.729 54.9822V54.9822ZM162.338 78.8893L122.996 98.56C119.809 100.179 115.614 97.602 115.606 93.9933V54.6518C115.614 51.8358 117.901 49.5484 120.717 49.5484C121.51 49.5484 122.295 49.73 122.996 50.0851L162.338 69.7558C164.08 70.6312 165.162 72.3736 165.162 74.3225C165.162 76.2715 164.08 78.0139 162.338 78.8893Z" fill="black"/>
<path d="M338.58 363.355H454.193V379.871H338.58V363.355Z" fill="black"/>
<path d="M338.58 396.387H454.193V412.903H338.58V396.387Z" fill="black"/>
<path d="M437.678 429.419H454.194V445.936H437.678V429.419Z" fill="black"/>
<path d="M338.58 429.419H355.096V445.936H338.58V429.419Z" fill="black"/>
<path d="M404.645 429.419H421.161V445.936H404.645V429.419Z" fill="black"/>
<path d="M371.613 429.419H388.129V445.936H371.613V429.419Z" fill="black"/>
</svg>
