<svg width="672" height="500" viewBox="0 0 672 500" fill="none" xmlns="http://www.w3.org/2000/svg">
<path d="M504.361 276.053H652.996C661.395 276.053 668.214 269.156 668.214 260.64V110.109C668.214 101.593 661.395 94.6958 652.996 94.6958H504.361C495.963 94.6958 489.143 101.593 489.143 110.109V260.64C489.143 269.156 495.963 276.053 504.361 276.053Z" fill="#F3F9FF"/>
<path d="M248.628 500H397.263C405.662 500 412.481 493.093 412.481 484.587V334.046C412.481 325.54 405.662 318.633 397.263 318.633H248.628C240.23 318.633 233.41 325.54 233.41 334.046V484.587C233.41 493.093 240.23 500 248.628 500Z" fill="#F3F9FF"/>
<path d="M650.932 57.0871H664.391C668.595 57.0871 672 53.6383 672 49.3804V35.7492C672 31.4912 668.595 28.0425 664.391 28.0425H650.932C646.728 28.0425 643.323 31.4912 643.323 35.7492V49.3804C643.323 53.6383 646.728 57.0871 650.932 57.0871Z" fill="#F3F9FF"/>
<path d="M477.188 465.599H511.676C513.778 465.599 515.481 463.875 515.481 461.746V426.816C515.481 424.687 513.778 422.962 511.676 422.962H477.188C475.086 422.962 473.383 424.687 473.383 426.816V461.746C473.383 463.875 475.086 465.599 477.188 465.599Z" fill="#F3F9FF"/>
<path d="M3.80456 357.273H38.2929C40.395 357.273 42.0975 355.548 42.0975 353.419V318.489C42.0975 316.36 40.395 314.635 38.2929 314.635H3.80456C1.70254 314.635 0 316.36 0 318.489V353.419C0 355.548 1.70254 357.273 3.80456 357.273Z" fill="#F3F9FF"/>
<path d="M119.102 225.006H267.727C276.135 225.006 282.945 218.109 282.945 209.593V59.0618C282.945 50.5459 276.135 43.6484 267.727 43.6484H119.102C110.693 43.6484 103.883 50.5459 103.883 59.0618V209.593C103.883 218.109 110.693 225.006 119.102 225.006Z" fill="#F3F9FF"/>
<path d="M433.863 217.444H594.33C602.738 217.444 609.548 210.547 609.548 202.031V39.5064C609.548 30.9905 602.738 24.093 594.33 24.093H433.863C425.455 24.093 418.645 30.9905 418.645 39.5064V202.031C418.645 210.547 425.455 217.444 433.863 217.444Z" fill="url(#paint0_linear)"/>
<path d="M433.863 217.444H594.33C602.738 217.444 609.548 210.547 609.548 202.031V39.5064C609.548 30.9905 602.738 24.093 594.33 24.093H433.863C425.455 24.093 418.645 30.9905 418.645 39.5064V202.031C418.645 210.547 425.455 217.444 433.863 217.444Z" stroke="#EB3E36" stroke-width="2"/>
<path d="M547.248 123.827H538.45C536.348 123.827 534.646 125.561 534.646 127.681V190.933C534.646 193.062 536.348 194.787 538.45 194.787H547.248C549.35 194.787 551.053 193.062 551.053 190.933V127.681C551.053 125.561 549.35 123.827 547.248 123.827Z" fill="url(#paint1_linear)"/>
<path d="M547.248 123.827H538.45C536.348 123.827 534.646 125.561 534.646 127.681V190.933C534.646 193.062 536.348 194.787 538.45 194.787H547.248C549.35 194.787 551.053 193.062 551.053 190.933V127.681C551.053 125.561 549.35 123.827 547.248 123.827Z" stroke="#EB3E36" stroke-width="2"/>
<path d="M580.32 149.712H571.512C569.41 149.712 567.708 151.436 567.708 153.565V190.933C567.708 193.062 569.41 194.786 571.512 194.786H580.32C582.422 194.786 584.124 193.062 584.124 190.933V153.565C584.124 151.436 582.422 149.712 580.32 149.712Z" fill="url(#paint2_linear)"/>
<path d="M580.32 149.712H571.512C569.41 149.712 567.708 151.436 567.708 153.565V190.933C567.708 193.062 569.41 194.786 571.512 194.786H580.32C582.422 194.786 584.124 193.062 584.124 190.933V153.565C584.124 151.436 582.422 149.712 580.32 149.712Z" stroke="#EB3E36" stroke-width="2"/>
<path d="M498.483 72.4333C498.483 85.7659 487.802 96.5841 474.638 96.5841C461.465 96.5841 450.793 85.7659 450.793 72.4333C450.793 59.0911 461.465 48.2825 474.638 48.2825C487.802 48.2825 498.483 59.0911 498.483 72.4333Z" fill="url(#paint3_linear)"/>
<path d="M498.483 72.4333C498.483 85.7659 487.802 96.5841 474.638 96.5841C461.465 96.5841 450.793 85.7659 450.793 72.4333C450.793 59.0911 461.465 48.2825 474.638 48.2825C487.802 48.2825 498.483 59.0911 498.483 72.4333Z" stroke="#EB3E36" stroke-width="2"/>
<path d="M459.486 91.0838C463.605 94.5133 468.884 96.5844 474.638 96.5844C487.802 96.5844 498.483 85.7662 498.483 72.4336H474.98L459.486 91.0838Z" fill="url(#paint4_linear)"/>
<path d="M459.486 91.0838C463.605 94.5133 468.884 96.5844 474.638 96.5844C487.802 96.5844 498.483 85.7662 498.483 72.4336H474.98L459.486 91.0838Z" stroke="#EB3E36" stroke-width="2"/>
<path d="M474.98 48.3015V72.4331H498.483C498.483 59.2161 487.992 48.4845 474.98 48.3015Z" fill="url(#paint5_linear)"/>
<path d="M474.98 48.3015V72.4331H498.483C498.483 59.2161 487.992 48.4845 474.98 48.3015Z" stroke="#EB3E36" stroke-width="2"/>
<path d="M553.555 96.5841C540.381 96.5841 529.709 85.7659 529.709 72.4333C529.709 59.0911 540.381 48.2825 553.555 48.2825C566.718 48.2825 577.4 59.0911 577.4 72.4333C577.4 85.7659 566.718 96.5841 553.555 96.5841Z" fill="url(#paint6_linear)"/>
<path d="M553.555 96.5841C540.381 96.5841 529.709 85.7659 529.709 72.4333C529.709 59.0911 540.381 48.2825 553.555 48.2825C566.718 48.2825 577.4 59.0911 577.4 72.4333C577.4 85.7659 566.718 96.5841 553.555 96.5841Z" stroke="#EB3E36" stroke-width="2"/>
<path d="M535.141 57.0879C531.745 61.2591 529.71 66.6056 529.71 72.4338C529.71 85.7664 540.382 96.5847 553.555 96.5847V72.7806L535.141 57.0879Z" fill="url(#paint7_linear)"/>
<path d="M535.141 57.0879C531.745 61.2591 529.71 66.6056 529.71 72.4338C529.71 85.7664 540.382 96.5847 553.555 96.5847V72.7806L535.141 57.0879Z" stroke="#EB3E36" stroke-width="2"/>
<path d="M577.381 72.78H553.555V96.584C566.605 96.584 577.191 85.9585 577.381 72.78Z" fill="url(#paint8_linear)"/>
<path d="M577.381 72.78H553.555V96.584C566.605 96.584 577.191 85.9585 577.381 72.78Z" stroke="#EB3E36" stroke-width="2"/>
<path d="M101.392 451.987H261.859C270.267 451.987 277.077 445.09 277.077 436.574V274.05C277.077 265.534 270.267 258.636 261.859 258.636H101.392C92.9835 258.636 86.1733 265.534 86.1733 274.05V436.574C86.1733 445.09 92.9835 451.987 101.392 451.987Z" fill="url(#paint9_linear)"/>
<path d="M111.132 341.223V421.055" stroke="#EB3E36" stroke-width="2"/>
<path d="M139.324 341.223V421.055" stroke="#EB3E36" stroke-width="2"/>
<path d="M167.525 289.569V421.055" stroke="#EB3E36" stroke-width="2"/>
<path d="M195.726 289.569V421.055" stroke="#EB3E36" stroke-width="2"/>
<path d="M223.918 421.055V289.569" stroke="#EB3E36" stroke-width="2"/>
<path d="M252.119 289.569V421.055" stroke="#EB3E36" stroke-width="2"/>
<path d="M498.873 355.307H195.392C186.994 355.307 180.174 348.41 180.174 339.894V136.187C180.174 127.671 186.994 120.773 195.392 120.773H498.873C507.281 120.773 514.091 127.671 514.091 136.187V339.894C514.091 348.41 507.281 355.307 498.873 355.307Z" fill="url(#paint10_linear)"/>
<path d="M498.873 120.773H195.392C186.994 120.773 180.174 127.671 180.174 136.187V145.483H514.091V136.187C514.091 127.671 507.281 120.773 498.873 120.773Z" fill="url(#paint11_linear)"/>
<path d="M478.948 243.492H327.65C325.053 243.492 322.941 241.364 322.941 238.734C322.941 236.094 325.053 233.965 327.65 233.965H478.948C481.554 233.965 483.656 236.094 483.656 238.734C483.656 241.364 481.554 243.492 478.948 243.492Z" fill="url(#paint12_linear)"/>
<path d="M478.948 243.492H327.65C325.053 243.492 322.941 241.364 322.941 238.734C322.941 236.094 325.053 233.965 327.65 233.965H478.948C481.554 233.965 483.656 236.094 483.656 238.734C483.656 241.364 481.554 243.492 478.948 243.492Z" stroke="#EB3E36" stroke-width="2"/>
<path d="M478.947 270.389H327.649C325.052 270.389 322.941 268.25 322.941 265.621C322.941 262.991 325.052 260.852 327.649 260.852H478.947C481.553 260.852 483.655 262.991 483.655 265.621C483.655 268.25 481.553 270.389 478.947 270.389Z" fill="url(#paint13_linear)"/>
<path d="M478.947 270.389H327.649C325.052 270.389 322.941 268.25 322.941 265.621C322.941 262.991 325.052 260.852 327.649 260.852H478.947C481.553 260.852 483.655 262.991 483.655 265.621C483.655 268.25 481.553 270.389 478.947 270.389Z" stroke="#EB3E36" stroke-width="2"/>
<path d="M478.947 297.276H327.649C325.052 297.276 322.941 295.147 322.941 292.507C322.941 289.878 325.052 287.739 327.649 287.739H478.947C481.553 287.739 483.655 289.878 483.655 292.507C483.655 295.147 481.553 297.276 478.947 297.276Z" fill="url(#paint14_linear)"/>
<path d="M478.947 297.276H327.649C325.052 297.276 322.941 295.147 322.941 292.507C322.941 289.878 325.052 287.739 327.649 287.739H478.947C481.553 287.739 483.655 289.878 483.655 292.507C483.655 295.147 481.553 297.276 478.947 297.276Z" stroke="#EB3E36" stroke-width="2"/>
<path d="M474.981 199.671H219.295C211.353 199.671 204.904 193.149 204.904 185.095C204.904 177.052 211.353 170.53 219.295 170.53H474.981C482.923 170.53 489.362 177.052 489.362 185.095C489.362 193.149 482.923 199.671 474.981 199.671Z" fill="url(#paint15_linear)"/>
<path d="M474.981 199.671H219.295C211.353 199.671 204.904 193.149 204.904 185.095C204.904 177.052 211.353 170.53 219.295 170.53H474.981C482.923 170.53 489.362 177.052 489.362 185.095C489.362 193.149 482.923 199.671 474.981 199.671Z" stroke="#EB3E36" stroke-width="2"/>
<path d="M206.644 133.123C206.644 136.244 204.152 138.768 201.071 138.768C197.999 138.768 195.497 136.244 195.497 133.123C195.497 130.002 197.999 127.478 201.071 127.478C204.152 127.478 206.644 130.002 206.644 133.123Z" fill="url(#paint16_radial)"/>
<path d="M225.192 133.123C225.192 136.244 222.691 138.768 219.619 138.768C216.537 138.768 214.045 136.244 214.045 133.123C214.045 130.002 216.537 127.478 219.619 127.478C222.691 127.478 225.192 130.002 225.192 133.123Z" fill="url(#paint17_radial)"/>
<path d="M243.73 133.123C243.73 136.244 241.238 138.768 238.156 138.768C235.075 138.768 232.583 136.244 232.583 133.123C232.583 130.002 235.075 127.478 238.156 127.478C241.238 127.478 243.73 130.002 243.73 133.123Z" fill="url(#paint18_radial)"/>
<path d="M472.223 184.141C472.223 187.378 469.635 190.008 466.43 190.008C463.234 190.008 460.638 187.378 460.638 184.141C460.638 180.905 463.234 178.275 466.43 178.275C469.635 178.275 472.223 180.905 472.223 184.141Z" stroke="#EB3E36" stroke-width="2" stroke-linecap="round"/>
<path d="M470.929 188.101L474.705 191.925" stroke="#EB3E36" stroke-width="2" stroke-linecap="round"/>
<path d="M278.494 279.821C276.335 292.44 265.492 302.045 252.414 302.045C237.776 302.045 225.905 290.022 225.905 275.187C225.905 261.922 235.417 250.921 247.905 248.753V227.3C223.784 229.602 204.904 250.16 204.904 275.187C204.904 301.765 226.181 323.306 252.414 323.306C277.105 323.306 297.384 304.222 299.685 279.821H278.494Z" fill="url(#paint19_linear)"/>
<path d="M278.494 279.821C276.335 292.44 265.492 302.045 252.414 302.045C237.776 302.045 225.905 290.022 225.905 275.187C225.905 261.922 235.417 250.921 247.905 248.753V227.3C223.784 229.602 204.904 250.16 204.904 275.187C204.904 301.765 226.181 323.306 252.414 323.306C277.105 323.306 297.384 304.222 299.685 279.821H278.494Z" stroke="#EB3E36" stroke-width="2"/>
<path d="M254.278 227.116V248.425C267.433 249.359 277.924 259.975 278.837 273.298H299.876C298.915 248.232 279.027 228.089 254.278 227.116Z" fill="url(#paint20_linear)"/>
<path d="M254.278 227.116V248.425C267.433 249.359 277.924 259.975 278.837 273.298H299.876C298.915 248.232 279.027 228.089 254.278 227.116Z" stroke="#EB3E36" stroke-width="2"/>
<path d="M262.324 57.0874L266.31 65.2661L275.212 66.5763L268.764 72.9343L270.286 81.9126L262.324 77.6739L254.363 81.9126L255.885 72.9343L249.437 66.5763L258.339 65.2661L262.324 57.0874Z" fill="url(#paint21_linear)"/>
<path d="M296.556 57.0874L300.532 65.2661L309.444 66.5763L302.996 72.9343L304.517 81.9126L296.556 77.6739L288.586 81.9126L290.108 72.9343L283.668 66.5763L292.571 65.2661L296.556 57.0874Z" fill="url(#paint22_linear)"/>
<path d="M330.779 57.0874L334.764 65.2661L343.667 66.5763L337.227 72.9343L338.749 81.9126L330.779 77.6739L322.818 81.9126L324.339 72.9343L317.891 66.5763L326.803 65.2661L330.779 57.0874Z" fill="url(#paint23_linear)"/>
<path d="M365.01 57.0874L368.995 65.2661L377.898 66.5763L371.449 72.9343L372.971 81.9126L365.01 77.6739L357.039 81.9126L358.561 72.9343L352.122 66.5763L361.025 65.2661L365.01 57.0874Z" fill="url(#paint24_linear)"/>
<path d="M354.005 394.708L357.981 402.877L366.884 404.187L360.444 410.545L361.966 419.533L354.005 415.295L346.035 419.533L347.556 410.545L341.117 404.187L350.02 402.877L354.005 394.708Z" fill="url(#paint25_linear)"/>
<path d="M388.227 394.708L392.212 402.877L401.115 404.187L394.676 410.545L396.197 419.533L388.227 415.294L380.266 419.533L381.788 410.545L375.339 404.187L384.242 402.877L388.227 394.708Z" fill="url(#paint26_linear)"/>
<path d="M422.459 394.708L426.435 402.877L435.347 404.187L428.898 410.545L430.42 419.533L422.459 415.294L414.488 419.533L416.01 410.545L409.571 404.187L418.473 402.877L422.459 394.708Z" fill="url(#paint27_linear)"/>
<path fill-rule="evenodd" clip-rule="evenodd" d="M215.233 43.6488C215.233 46.0475 215.024 48.3787 214.672 50.71C214.606 50.71 214.463 50.71 214.396 50.71C212.028 50.71 209.65 50.71 207.282 50.71C207.215 50.71 207.139 50.71 207.073 50.71C206.093 55.44 204.286 59.8135 201.699 63.7054C201.841 63.7728 201.908 63.9174 202.05 64.0522C203.658 65.5358 205.123 67.0964 206.654 68.6473C206.863 68.8593 207.006 68.9941 207.139 69.1386C204.352 72.9535 201.004 76.3444 197.238 79.0995C197.171 79.0321 197.171 79.0321 197.105 78.955C195.431 77.2692 193.757 75.6412 192.149 73.9457C192.006 73.8782 191.94 73.7337 191.797 73.6567C188.04 76.2095 183.712 78.0398 179.042 78.955C178.976 79.1669 178.976 79.3789 178.976 79.5908C179.042 81.9221 179.042 84.2534 179.042 86.5846C179.042 86.6521 179.042 86.6521 179.042 86.7291C176.807 87.0759 174.505 87.2975 172.204 87.2975C169.911 87.2975 167.6 87.0759 165.374 86.7291C165.374 86.6521 165.374 86.6521 165.374 86.5846C165.441 84.2534 165.375 81.9221 165.441 79.5908C165.441 79.3114 165.441 79.0995 165.374 78.955C160.771 78.0398 156.443 76.2095 152.61 73.6567C152.477 73.7337 152.401 73.8012 152.268 73.9457C150.584 75.6412 148.92 77.2692 147.312 78.955C147.246 79.0321 147.246 79.0321 147.17 79.0995C143.337 76.3444 139.989 72.9535 137.268 69.1386C137.411 68.9941 137.554 68.8593 137.763 68.6473C139.294 67.0964 140.826 65.5358 142.366 64.0522C142.5 63.9848 142.642 63.8499 142.709 63.7054C140.131 59.8135 138.248 55.44 137.335 50.71C137.268 50.71 137.202 50.71 137.135 50.71C134.757 50.71 132.389 50.71 130.021 50.71C129.954 50.71 129.811 50.71 129.735 50.71C129.393 48.4462 129.184 46.0475 129.184 43.6488C129.184 41.25 129.393 38.8417 129.602 36.5104C129.669 36.5104 129.669 36.5104 129.735 36.5104C131.97 36.5104 134.272 36.443 136.507 36.5104C136.783 36.5104 136.992 36.5105 137.202 36.443C138.105 31.7805 139.922 27.3973 142.433 23.5921C142.29 23.3802 142.014 23.0912 141.663 22.7347C140.131 21.1838 138.59 19.6328 137.059 18.0818C139.855 14.1996 143.203 10.8086 147.037 8.0535C148.634 9.67191 150.308 11.3 151.916 12.9954C152.125 13.2074 152.334 13.4193 152.544 13.4867C156.31 10.9435 160.628 9.11316 165.232 8.18836C165.298 8.05349 165.298 7.90901 165.298 7.69707C165.298 6.4929 165.298 5.23091 165.298 4.02674C165.298 2.89963 165.374 1.69547 165.298 0.568365C167.534 0.21193 169.835 0 172.204 0C174.582 0 176.883 0.21193 179.109 0.568365C179.109 1.69547 179.109 2.89963 179.109 4.02674C179.109 5.23091 179.176 6.4929 179.109 7.69707C179.109 7.90901 179.109 8.05349 179.176 8.18836C183.779 9.11316 188.107 10.9435 191.873 13.4867C192.083 13.3518 192.292 13.2074 192.501 12.9954C194.099 11.3 195.773 9.74898 197.38 8.0535C201.214 10.8086 204.628 14.1996 207.348 18.0818C205.817 19.6328 204.286 21.1838 202.745 22.7347C202.402 23.0912 202.127 23.3802 201.984 23.5921C204.495 27.4744 206.302 31.7805 207.215 36.443C207.415 36.5105 207.634 36.5104 207.91 36.5104C210.145 36.443 212.446 36.5104 214.672 36.5104C214.739 36.5104 214.739 36.5104 214.815 36.5104C215.157 38.8417 215.376 41.25 215.233 43.6488ZM194.032 43.6488C194.032 42.4446 193.966 41.2501 193.757 40.0459C193.195 36.6549 191.873 33.4759 189.923 30.7882C188.525 28.8134 186.851 27.1179 184.901 25.7114C182.181 23.7944 179.042 22.4554 175.694 21.8966C174.582 21.6751 173.393 21.6076 172.204 21.6076C171.024 21.6076 169.835 21.6751 168.723 21.8966C165.298 22.4554 162.169 23.7944 159.515 25.7114C157.566 27.1179 155.892 28.8134 154.493 30.7882C152.544 33.4759 151.222 36.6549 150.66 40.0459C150.451 41.2501 150.385 42.4446 150.385 43.6488C150.385 44.9204 150.451 46.0475 150.66 47.2516C151.222 50.71 152.544 53.889 154.493 56.5671C155.892 58.4745 157.566 60.17 159.515 61.5861C162.236 63.4935 165.298 64.8325 168.723 65.4009C169.835 65.6128 171.024 65.6802 172.204 65.6802C173.393 65.6802 174.582 65.6128 175.694 65.4009C179.109 64.8325 182.248 63.4935 184.901 61.5861C186.851 60.17 188.525 58.4745 189.923 56.5671C191.873 53.889 193.195 50.71 193.757 47.2516C193.966 46.0475 194.032 44.8433 194.032 43.6488Z" fill="url(#paint28_linear)"/>
<path fill-rule="evenodd" clip-rule="evenodd" d="M601.14 271.42C601.14 272.711 601.026 273.973 600.836 275.225C600.798 275.225 600.722 275.225 600.684 275.225C599.409 275.225 598.135 275.225 596.851 275.225C596.822 275.225 596.784 275.225 596.746 275.225C596.213 277.768 595.243 280.128 593.855 282.219C593.921 282.257 593.959 282.334 594.035 282.411C594.901 283.211 595.69 284.049 596.518 284.887C596.632 285.003 596.708 285.07 596.784 285.147C595.281 287.199 593.474 289.03 591.448 290.513C591.41 290.475 591.41 290.475 591.372 290.436C590.469 289.521 589.575 288.654 588.709 287.739C588.633 287.7 588.595 287.623 588.519 287.585C586.493 288.953 584.162 289.945 581.651 290.436C581.613 290.552 581.614 290.667 581.614 290.773C581.652 292.035 581.651 293.288 581.651 294.54C581.651 294.578 581.651 294.578 581.651 294.617C580.444 294.81 579.207 294.925 577.971 294.925C576.734 294.925 575.488 294.81 574.29 294.617C574.29 294.578 574.29 294.578 574.29 294.54C574.328 293.288 574.29 292.035 574.328 290.773C574.328 290.629 574.328 290.513 574.29 290.436C571.807 289.945 569.486 288.953 567.422 287.585C567.346 287.623 567.308 287.662 567.232 287.739C566.329 288.654 565.425 289.521 564.569 290.436C564.531 290.475 564.531 290.475 564.493 290.513C562.429 289.03 560.622 287.199 559.157 285.147C559.233 285.07 559.309 285.003 559.423 284.887C560.251 284.049 561.069 283.211 561.896 282.411C561.972 282.373 562.049 282.296 562.087 282.219C560.698 280.128 559.68 277.768 559.195 275.225C559.157 275.225 559.119 275.225 559.081 275.225C557.806 275.225 556.532 275.225 555.257 275.225C555.219 275.225 555.143 275.225 555.105 275.225C554.915 274.011 554.801 272.711 554.801 271.42C554.801 270.129 554.915 268.838 555.029 267.586C555.067 267.586 555.067 267.586 555.105 267.586C556.304 267.586 557.54 267.547 558.748 267.586C558.9 267.586 559.005 267.586 559.119 267.547C559.614 265.033 560.584 262.673 561.934 260.621C561.858 260.505 561.716 260.351 561.525 260.168C560.698 259.33 559.87 258.492 559.043 257.654C560.546 255.563 562.353 253.743 564.417 252.259C565.282 253.126 566.176 254.003 567.042 254.918C567.156 255.034 567.27 255.149 567.384 255.188C569.41 253.82 571.741 252.827 574.214 252.336C574.252 252.259 574.252 252.182 574.252 252.066C574.252 251.421 574.252 250.737 574.252 250.092C574.252 249.485 574.29 248.839 574.252 248.223C575.45 248.04 576.696 247.924 577.971 247.924C579.245 247.924 580.482 248.04 581.69 248.223C581.69 248.839 581.69 249.485 581.69 250.092C581.69 250.737 581.728 251.421 581.69 252.066C581.69 252.182 581.69 252.259 581.728 252.336C584.201 252.827 586.531 253.82 588.557 255.188C588.671 255.111 588.785 255.034 588.899 254.918C589.755 254.003 590.659 253.174 591.524 252.259C593.588 253.743 595.424 255.563 596.889 257.654C596.071 258.492 595.243 259.33 594.416 260.168C594.226 260.351 594.073 260.505 593.997 260.621C595.357 262.711 596.328 265.033 596.822 267.547C596.927 267.586 597.041 267.586 597.193 267.586C598.392 267.547 599.638 267.586 600.836 267.586C600.874 267.586 600.874 267.586 600.912 267.586C601.093 268.838 601.207 270.129 601.14 271.42ZM589.717 271.42C589.717 270.774 589.689 270.129 589.575 269.484C589.27 267.663 588.557 265.948 587.511 264.503C586.759 263.434 585.856 262.528 584.8 261.767C583.335 260.736 581.651 260.014 579.844 259.706C579.245 259.6 578.608 259.561 577.971 259.561C577.333 259.561 576.696 259.6 576.087 259.706C574.252 260.014 572.559 260.736 571.132 261.767C570.086 262.528 569.182 263.434 568.431 264.503C567.384 265.948 566.671 267.663 566.367 269.484C566.253 270.129 566.214 270.774 566.214 271.42C566.214 272.104 566.253 272.711 566.367 273.366C566.671 275.225 567.384 276.94 568.431 278.385C569.182 279.406 570.086 280.321 571.132 281.082C572.597 282.113 574.252 282.835 576.087 283.134C576.696 283.25 577.333 283.288 577.971 283.288C578.608 283.288 579.245 283.25 579.844 283.134C581.689 282.835 583.373 282.113 584.8 281.082C585.856 280.321 586.759 279.406 587.511 278.385C588.557 276.94 589.27 275.225 589.575 273.366C589.689 272.711 589.717 272.065 589.717 271.42Z" fill="url(#paint29_linear)"/>
<path fill-rule="evenodd" clip-rule="evenodd" d="M127.034 103.482C127.034 104.782 126.92 106.035 126.739 107.287C126.701 107.287 126.625 107.287 126.587 107.287C125.313 107.287 124.029 107.287 122.754 107.287C122.716 107.287 122.678 107.287 122.64 107.287C122.117 109.84 121.137 112.19 119.748 114.29C119.825 114.329 119.863 114.396 119.939 114.474C120.804 115.273 121.594 116.111 122.421 116.949C122.535 117.065 122.602 117.142 122.678 117.219C121.175 119.271 119.378 121.092 117.352 122.575C117.314 122.537 117.314 122.537 117.275 122.498C116.372 121.593 115.468 120.716 114.612 119.801C114.536 119.762 114.498 119.685 114.422 119.647C112.396 121.015 110.066 122.007 107.545 122.498C107.517 122.614 107.517 122.729 107.517 122.845C107.545 124.097 107.545 125.35 107.545 126.612C107.545 126.64 107.545 126.64 107.545 126.679C106.347 126.872 105.11 126.987 103.864 126.987C102.628 126.987 101.391 126.872 100.193 126.679C100.193 126.64 100.193 126.64 100.193 126.612C100.231 125.35 100.193 124.097 100.231 122.845C100.231 122.691 100.231 122.575 100.193 122.498C97.7105 122.007 95.3802 121.015 93.3162 119.647C93.2497 119.685 93.2021 119.724 93.1355 119.801C92.2319 120.716 91.3284 121.593 90.4628 122.498C90.4248 122.537 90.4248 122.537 90.3867 122.575C88.3227 121.092 86.5251 119.271 85.0603 117.219C85.1364 117.142 85.2126 117.065 85.3267 116.949C86.1447 116.111 86.9721 115.273 87.7996 114.474C87.8757 114.435 87.9518 114.368 87.9899 114.29C86.6012 112.19 85.5834 109.84 85.0984 107.287C85.0603 107.287 85.0223 107.287 84.9842 107.287C83.7097 107.287 82.4352 107.287 81.1512 107.287C81.1131 107.287 81.0465 107.287 81.0085 107.287C80.8182 106.073 80.7041 104.782 80.7041 103.482C80.7041 102.191 80.8183 100.9 80.9324 99.6478C80.9705 99.6478 80.9704 99.6478 81.0085 99.6478C82.2069 99.6478 83.4434 99.6092 84.6418 99.6478C84.794 99.6478 84.9082 99.6478 85.0223 99.6092C85.5074 97.0949 86.487 94.7444 87.8377 92.6925C87.7616 92.5769 87.6094 92.4228 87.4287 92.2301C86.6012 91.392 85.7737 90.5539 84.9462 89.7254C86.449 87.6254 88.2467 85.8046 90.3202 84.3211C91.1762 85.1977 92.0797 86.0744 92.9453 86.9799C93.0594 87.0955 93.1641 87.2111 93.2782 87.2496C95.3137 85.8817 97.6344 84.8895 100.117 84.3982C100.155 84.3211 100.155 84.244 100.155 84.1284C100.155 83.483 100.155 82.799 100.155 82.1536C100.155 81.5467 100.193 80.9013 100.155 80.2944C101.353 80.1017 102.59 79.9861 103.864 79.9861C105.148 79.9861 106.385 80.1017 107.583 80.2944C107.583 80.9013 107.583 81.5467 107.583 82.1536C107.583 82.799 107.621 83.483 107.583 84.1284C107.583 84.244 107.583 84.3211 107.621 84.3982C110.104 84.8895 112.434 85.8817 114.46 87.2496C114.574 87.1726 114.679 87.0955 114.793 86.9799C115.659 86.0744 116.562 85.2363 117.428 84.3211C119.492 85.8046 121.327 87.6254 122.792 89.7254C121.965 90.5539 121.137 91.392 120.319 92.2301C120.129 92.4228 119.977 92.5769 119.901 92.6925C121.251 94.7829 122.231 97.0949 122.716 99.6092C122.83 99.6478 122.944 99.6478 123.096 99.6478C124.295 99.6092 125.531 99.6478 126.739 99.6478C126.768 99.6478 126.768 99.6478 126.806 99.6478C126.996 100.9 127.11 102.191 127.034 103.482ZM115.621 103.482C115.621 102.836 115.582 102.191 115.468 101.546C115.173 99.7248 114.46 98.0101 113.404 96.5651C112.653 95.5054 111.749 94.5903 110.703 93.8292C109.238 92.7984 107.545 92.076 105.748 91.7773C105.148 91.6617 104.511 91.6232 103.864 91.6232C103.227 91.6232 102.59 91.6617 101.991 91.7773C100.155 92.076 98.4619 92.7984 97.0352 93.8292C95.989 94.5903 95.0854 95.5054 94.334 96.5651C93.2782 98.0101 92.5649 99.7248 92.27 101.546C92.1559 102.191 92.1178 102.836 92.1178 103.482C92.1178 104.175 92.1559 104.782 92.27 105.428C92.5649 107.287 93.2782 109.002 94.334 110.447C95.0854 111.468 95.989 112.383 97.0352 113.144C98.5 114.175 100.155 114.897 101.991 115.196C102.59 115.312 103.227 115.35 103.864 115.35C104.511 115.35 105.148 115.312 105.748 115.196C107.583 114.897 109.276 114.175 110.703 113.144C111.749 112.383 112.653 111.468 113.404 110.447C114.46 109.002 115.173 107.287 115.468 105.428C115.582 104.782 115.621 104.137 115.621 103.482Z" fill="url(#paint30_linear)"/>
<path d="M13.6875 448.856C15.6564 450.475 16.6455 451.284 16.6455 451.284C16.6455 451.284 29.4288 435.321 35.8205 427.345C35.8205 427.345 34.8409 426.536 32.872 424.917C26.4708 432.894 13.6875 448.856 13.6875 448.856ZM32.872 424.917C34.8409 426.536 35.8205 427.345 35.8205 427.345C36.2105 426.854 36.6005 426.372 37 425.881C37 425.881 36.0107 425.072 34.0419 423.453C33.6519 423.944 33.262 424.426 32.872 424.917ZM16.6455 451.284C17.6252 452.093 18.6144 452.902 19.594 453.712C19.594 453.712 32.3869 437.749 38.7786 429.773C37.7894 428.963 36.8097 428.154 35.8205 427.345C29.4288 435.321 16.6455 451.284 16.6455 451.284ZM35.8205 427.345C36.8097 428.154 37.7894 428.963 38.7786 429.773C39.1686 429.281 39.5585 428.8 39.9485 428.308C38.9688 427.499 37.9796 426.69 37 425.881C36.6005 426.372 36.2105 426.854 35.8205 427.345ZM19.594 453.712C20.5832 454.521 21.5725 455.33 22.5521 456.139C22.5521 456.139 35.3354 440.177 41.7271 432.2C40.7474 431.391 39.7583 430.582 38.7786 429.773C32.3869 437.749 19.594 453.712 19.594 453.712ZM38.7786 429.773C39.7583 430.582 40.7474 431.391 41.7271 432.2C42.1266 431.709 42.5165 431.227 42.9065 430.736C41.9173 429.927 40.9377 429.118 39.9485 428.308C39.5585 428.8 39.1686 429.281 38.7786 429.773ZM22.5521 456.139C22.5521 456.139 23.5413 456.948 25.5102 458.567C25.5102 458.567 38.2935 442.604 44.6851 434.628C42.7163 433.009 41.7271 432.2 41.7271 432.2C35.3354 440.177 22.5521 456.139 22.5521 456.139ZM41.7271 432.2C41.7271 432.2 42.7163 433.009 44.6851 434.628C45.0751 434.137 45.4651 433.655 45.8551 433.164C43.8862 431.545 42.9065 430.736 42.9065 430.736C42.5165 431.227 42.1266 431.709 41.7271 432.2Z" fill="url(#paint31_linear)"/>
<path fill-rule="evenodd" clip-rule="evenodd" d="M32.8721 424.918C33.652 423.945 34.042 423.453 34.042 423.453C49.9831 403.551 65.9242 383.658 81.8653 363.756L81.8749 363.736C84.5285 360.432 89.3223 359.931 92.5847 362.609C93.1078 363.043 93.5834 363.572 93.9733 364.102L93.9829 364.122C112.692 390.507 131.401 416.893 150.11 443.289C170.759 412.703 191.418 382.117 212.067 351.54L212.076 351.521C214.454 348.005 219.191 347.109 222.653 349.508C223.11 349.826 223.538 350.201 223.899 350.587L223.918 350.606C240.183 368.1 256.457 385.604 272.721 403.098C288.748 384.448 304.775 365.798 320.801 347.138C320.801 347.138 321.21 346.666 322.028 345.722C323.94 347.408 324.891 348.246 324.891 348.246C325.852 349.094 326.813 349.932 327.764 350.779C328.724 351.618 329.676 352.465 330.636 353.303C330.636 353.303 331.597 354.151 333.509 355.837C332.691 356.781 332.282 357.263 332.282 357.263C314.419 378.051 296.557 398.84 278.694 419.629L278.685 419.639C278.523 419.831 278.342 420.014 278.162 420.197C275.099 423.107 270.286 422.962 267.404 419.87L267.395 419.851C251.359 402.607 235.332 385.373 219.305 368.129C198.39 399.1 177.465 430.072 156.549 461.052L156.539 461.062C156.054 461.775 155.427 462.44 154.694 462.97C151.28 465.455 146.524 464.665 144.079 461.207L144.07 461.197C125.18 434.561 106.3 407.925 87.42 381.288C73.5618 398.58 59.7133 415.872 45.8552 433.164C45.8552 433.164 45.4652 433.655 44.6852 434.628C42.7164 433.01 41.7272 432.201 41.7272 432.201C40.7475 431.391 39.7584 430.582 38.7787 429.773C37.7895 428.964 36.8098 428.155 35.8206 427.345C35.8206 427.345 34.8409 426.536 32.8721 424.918ZM330.636 353.303C329.818 354.257 329.409 354.729 329.409 354.729C329.409 354.729 329.818 354.257 330.636 353.303ZM329.409 354.729C329.409 354.729 330.37 355.577 332.282 357.263C330.37 355.577 329.409 354.729 329.409 354.729Z" fill="url(#paint32_linear)"/>
<path d="M320.801 347.138C322.713 348.824 323.674 349.672 323.674 349.672C324.083 349.2 324.492 348.718 324.891 348.246C324.891 348.246 323.94 347.408 322.028 345.722C321.619 346.194 321.21 346.666 320.801 347.138ZM322.028 345.722C323.94 347.408 324.891 348.246 324.891 348.246C331.559 340.491 344.875 324.991 344.875 324.991C344.875 324.991 343.924 324.153 342.002 322.467C342.002 322.467 328.686 337.967 322.028 345.722ZM323.674 349.672C324.625 350.51 325.586 351.357 326.546 352.205C326.946 351.724 327.355 351.252 327.764 350.779C326.812 349.932 325.852 349.094 324.891 348.246C324.492 348.718 324.083 349.2 323.674 349.672ZM324.891 348.246C325.852 349.094 326.812 349.932 327.764 350.779C334.422 343.025 347.747 327.525 347.747 327.525C346.786 326.677 345.835 325.839 344.875 324.991C344.875 324.991 331.559 340.491 324.891 348.246ZM326.546 352.205C327.497 353.043 328.458 353.891 329.409 354.729C329.818 354.257 330.227 353.785 330.636 353.303C329.675 352.465 328.724 351.618 327.764 350.779C327.355 351.252 326.946 351.724 326.546 352.205ZM327.764 350.779C328.724 351.618 329.675 352.465 330.636 353.303C337.294 345.558 350.62 330.048 350.62 330.048C349.659 329.21 348.698 328.363 347.747 327.525C347.747 327.525 334.422 343.025 327.764 350.779ZM329.409 354.729C329.409 354.729 330.37 355.577 332.282 357.263C332.691 356.781 333.1 356.309 333.509 355.837C331.597 354.151 330.636 353.303 330.636 353.303C330.227 353.785 329.818 354.257 329.409 354.729ZM330.636 353.303C330.636 353.303 331.597 354.151 333.509 355.837C340.167 348.082 353.483 332.582 353.483 332.582C351.571 330.896 350.62 330.048 350.62 330.048C350.62 330.048 337.294 345.558 330.636 353.303Z" fill="url(#paint33_linear)"/>
<path d="M108.355 375.017C108.355 386.307 99.3189 395.449 88.181 395.449C77.0337 395.449 68.0073 386.307 68.0073 375.017C68.0073 363.736 77.0337 354.585 88.181 354.585C99.3189 354.585 108.355 363.736 108.355 375.017Z" fill="url(#paint34_linear)"/>
<path d="M108.355 375.017C108.355 386.307 99.3189 395.449 88.181 395.449C77.0337 395.449 68.0073 386.307 68.0073 375.017C68.0073 363.736 77.0337 354.585 88.181 354.585C99.3189 354.585 108.355 363.736 108.355 375.017Z" stroke="#EB3E36" stroke-width="2"/>
<path d="M95.2855 375.017C95.2855 378.996 92.1087 382.223 88.1805 382.223C84.2523 382.223 81.0659 378.996 81.0659 375.017C81.0659 371.048 84.2523 367.821 88.1805 367.821C92.1087 367.821 95.2855 371.048 95.2855 375.017Z" fill="url(#paint35_radial)"/>
<path d="M171.501 451.988C171.501 463.268 162.465 472.42 151.327 472.42C140.18 472.42 131.153 463.268 131.153 451.988C131.153 440.707 140.18 431.555 151.327 431.555C162.465 431.555 171.501 440.707 171.501 451.988Z" fill="url(#paint36_linear)"/>
<path d="M171.501 451.988C171.501 463.268 162.465 472.42 151.327 472.42C140.18 472.42 131.153 463.268 131.153 451.988C131.153 440.707 140.18 431.555 151.327 431.555C162.465 431.555 171.501 440.707 171.501 451.988Z" stroke="#EB3E36" stroke-width="2"/>
<path d="M158.433 451.988C158.433 455.966 155.256 459.193 151.328 459.193C147.4 459.193 144.213 455.966 144.213 451.988C144.213 448.009 147.4 444.792 151.328 444.792C155.256 444.792 158.433 448.009 158.433 451.988Z" fill="url(#paint37_radial)"/>
<path d="M238.956 359.758C238.956 371.048 229.92 380.19 218.782 380.19C207.644 380.19 198.608 371.048 198.608 359.758C198.608 348.477 207.644 339.325 218.782 339.325C229.92 339.325 238.956 348.477 238.956 359.758Z" fill="url(#paint38_linear)"/>
<path d="M238.956 359.758C238.956 371.048 229.92 380.19 218.782 380.19C207.644 380.19 198.608 371.048 198.608 359.758C198.608 348.477 207.644 339.325 218.782 339.325C229.92 339.325 238.956 348.477 238.956 359.758Z" stroke="#EB3E36" stroke-width="2"/>
<path d="M225.887 359.758C225.887 363.736 222.71 366.964 218.782 366.964C214.854 366.964 211.677 363.736 211.677 359.758C211.677 355.779 214.854 352.562 218.782 352.562C222.71 352.562 225.887 355.779 225.887 359.758Z" fill="url(#paint39_radial)"/>
<path d="M292.647 412.731C292.647 424.012 283.611 433.164 272.473 433.164C261.326 433.164 252.3 424.012 252.3 412.731C252.3 401.441 261.326 392.299 272.473 392.299C283.611 392.299 292.647 401.441 292.647 412.731Z" fill="url(#paint40_linear)"/>
<path d="M292.647 412.731C292.647 424.012 283.611 433.164 272.473 433.164C261.326 433.164 252.3 424.012 252.3 412.731C252.3 401.441 261.326 392.299 272.473 392.299C283.611 392.299 292.647 401.441 292.647 412.731Z" stroke="#EB3E36" stroke-width="2"/>
<path d="M279.579 412.732C279.579 416.71 276.402 419.928 272.474 419.928C268.546 419.928 265.359 416.71 265.359 412.732C265.359 408.753 268.546 405.526 272.474 405.526C276.402 405.526 279.579 408.753 279.579 412.732Z" fill="url(#paint41_radial)"/>
<path d="M355.251 316.186L301.293 349.537L334.117 376.53L355.251 316.186Z" fill="url(#paint42_linear)"/>
<path d="M126.007 313.537H78.8785C71.5262 313.537 65.5625 307.497 65.5625 300.05V252.317C65.5625 244.87 71.5262 238.83 78.8785 238.83H126.007C133.36 238.83 139.323 244.87 139.323 252.317V300.05C139.323 307.497 133.36 313.537 126.007 313.537Z" fill="url(#paint43_linear)"/>
<path d="M126.007 313.537H78.8785C71.5262 313.537 65.5625 307.497 65.5625 300.05V252.317C65.5625 244.87 71.5262 238.83 78.8785 238.83H126.007C133.36 238.83 139.323 244.87 139.323 252.317V300.05C139.323 307.497 133.36 313.537 126.007 313.537Z" stroke="#EB3E36" stroke-width="2"/>
<path d="M571.76 369.141L546.279 360.904V336.484L571.76 328.247C572.987 327.852 574.242 328.787 574.242 330.087V367.301C574.242 368.601 572.987 369.536 571.76 369.141Z" fill="url(#paint44_linear)"/>
<path d="M571.76 369.141L546.279 360.904V336.484L571.76 328.247C572.987 327.852 574.242 328.787 574.242 330.087V367.301C574.242 368.601 572.987 369.536 571.76 369.141Z" stroke="#EB3E36" stroke-width="2"/>
<path d="M538.67 381.827H474.04C469.845 381.827 466.431 378.369 466.431 374.121V323.266C466.431 319.018 469.845 315.56 474.04 315.56H538.67C542.864 315.56 546.279 319.018 546.279 323.266V374.121C546.279 378.369 542.864 381.827 538.67 381.827Z" fill="url(#paint45_linear)"/>
<path d="M538.67 381.827H474.04C469.845 381.827 466.431 378.369 466.431 374.121V323.266C466.431 319.018 469.845 315.56 474.04 315.56H538.67C542.864 315.56 546.279 319.018 546.279 323.266V374.121C546.279 378.369 542.864 381.827 538.67 381.827Z" stroke="#EB3E36" stroke-width="2"/>
<path d="M513.121 347.023L503.391 341.339C502.126 340.597 500.538 341.522 500.538 343.005V354.382C500.538 355.866 502.126 356.791 503.391 356.049L513.121 350.365C514.386 349.623 514.386 347.764 513.121 347.023Z" fill="url(#paint46_linear)"/>
<path d="M513.121 347.023L503.391 341.339C502.126 340.597 500.538 341.522 500.538 343.005V354.382C500.538 355.866 502.126 356.791 503.391 356.049L513.121 350.365C514.386 349.623 514.386 347.764 513.121 347.023Z" stroke="#EB3E36" stroke-width="2"/>
<path d="M92.1587 268.988L85.0923 284.832H82.8189L89.8618 269.551H80.6275V267.769H92.1587V268.988ZM105.799 284.832H94.6196V283.273L100.526 276.711C101.401 275.719 102.002 274.914 102.331 274.297C102.667 273.672 102.834 273.027 102.834 272.363C102.834 271.472 102.565 270.742 102.026 270.172C101.487 269.601 100.768 269.316 99.8696 269.316C98.7915 269.316 97.9517 269.625 97.3501 270.242C96.7564 270.851 96.4595 271.703 96.4595 272.797H94.2915C94.2915 271.226 94.7954 269.957 95.8032 268.988C96.8189 268.019 98.1743 267.535 99.8696 267.535C101.456 267.535 102.709 267.953 103.631 268.789C104.553 269.617 105.014 270.722 105.014 272.105C105.014 273.785 103.944 275.785 101.803 278.105L97.2329 283.062H105.799V284.832ZM107.909 271.051C107.909 270.027 108.233 269.183 108.881 268.519C109.538 267.855 110.377 267.523 111.401 267.523C112.44 267.523 113.28 267.859 113.92 268.531C114.569 269.195 114.893 270.058 114.893 271.121V271.953C114.893 272.984 114.565 273.828 113.909 274.484C113.26 275.133 112.432 275.457 111.424 275.457C110.409 275.457 109.569 275.133 108.905 274.484C108.241 273.828 107.909 272.957 107.909 271.871V271.051ZM109.526 271.953C109.526 272.562 109.698 273.066 110.042 273.465C110.385 273.855 110.846 274.051 111.424 274.051C111.979 274.051 112.424 273.859 112.76 273.476C113.104 273.094 113.276 272.57 113.276 271.906V271.051C113.276 270.441 113.108 269.937 112.772 269.539C112.436 269.14 111.979 268.941 111.401 268.941C110.823 268.941 110.366 269.14 110.03 269.539C109.694 269.937 109.526 270.457 109.526 271.097V271.953ZM116.217 280.648C116.217 279.625 116.542 278.785 117.19 278.129C117.846 277.465 118.686 277.133 119.709 277.133C120.733 277.133 121.573 277.461 122.229 278.117C122.885 278.773 123.213 279.644 123.213 280.73V281.562C123.213 282.586 122.885 283.429 122.229 284.094C121.581 284.75 120.749 285.078 119.733 285.078C118.717 285.078 117.877 284.754 117.213 284.105C116.549 283.449 116.217 282.578 116.217 281.492V280.648ZM117.834 281.562C117.834 282.179 118.006 282.687 118.35 283.086C118.694 283.476 119.155 283.672 119.733 283.672C120.295 283.672 120.745 283.48 121.081 283.097C121.417 282.707 121.584 282.179 121.584 281.515V280.648C121.584 280.031 121.413 279.527 121.069 279.136C120.733 278.746 120.28 278.551 119.709 278.551C119.155 278.551 118.702 278.746 118.35 279.136C118.006 279.519 117.834 280.039 117.834 280.695V281.562ZM111.917 283.543L110.686 282.769L119.018 269.433L120.249 270.207L111.917 283.543Z" fill="#F3F9FF"/>
<defs>
<linearGradient id="paint0_linear" x1="418.642" y1="20.2397" x2="609.547" y2="20.2397" gradientUnits="userSpaceOnUse">
<stop stop-color="#C5E8F8"/>
<stop offset="1" stop-color="#92C6E4"/>
</linearGradient>
<linearGradient id="paint1_linear" x1="534.642" y1="119.979" x2="551.057" y2="119.979" gradientUnits="userSpaceOnUse">
<stop stop-color="#FF3726"/>
<stop offset="1" stop-color="#D72A1A"/>
</linearGradient>
<linearGradient id="paint2_linear" x1="567.707" y1="145.86" x2="584.122" y2="145.86" gradientUnits="userSpaceOnUse">
<stop stop-color="#13257D"/>
<stop offset="1" stop-color="#141D52"/>
</linearGradient>
<linearGradient id="paint3_linear" x1="450.791" y1="44.4272" x2="498.481" y2="44.4272" gradientUnits="userSpaceOnUse">
<stop stop-color="#13257D"/>
<stop offset="1" stop-color="#141D52"/>
</linearGradient>
<linearGradient id="paint4_linear" x1="459.487" y1="68.5783" x2="498.481" y2="68.5783" gradientUnits="userSpaceOnUse">
<stop stop-color="#2C64B5"/>
<stop offset="1" stop-color="#2653AC"/>
</linearGradient>
<linearGradient id="paint5_linear" x1="474.982" y1="44.4453" x2="498.481" y2="44.4453" gradientUnits="userSpaceOnUse">
<stop stop-color="#FF3726"/>
<stop offset="1" stop-color="#D72A1A"/>
</linearGradient>
<linearGradient id="paint6_linear" x1="581.202" y1="48.2805" x2="581.202" y2="96.5822" gradientUnits="userSpaceOnUse">
<stop stop-color="#13257D"/>
<stop offset="1" stop-color="#141D52"/>
</linearGradient>
<linearGradient id="paint7_linear" x1="557.358" y1="57.0889" x2="557.358" y2="96.5827" gradientUnits="userSpaceOnUse">
<stop stop-color="#2C64B5"/>
<stop offset="1" stop-color="#2653AC"/>
</linearGradient>
<linearGradient id="paint8_linear" x1="581.186" y1="72.782" x2="581.186" y2="96.5821" gradientUnits="userSpaceOnUse">
<stop stop-color="#FF3726"/>
<stop offset="1" stop-color="#D72A1A"/>
</linearGradient>
<linearGradient id="paint9_linear" x1="86.1695" y1="254.781" x2="277.076" y2="254.781" gradientUnits="userSpaceOnUse">
<stop stop-color="#C5E8F8"/>
<stop offset="1" stop-color="#92C6E4"/>
</linearGradient>
<linearGradient id="paint10_linear" x1="180.178" y1="116.916" x2="514.094" y2="116.916" gradientUnits="userSpaceOnUse">
<stop stop-color="#2C64B5"/>
<stop offset="1" stop-color="#2653AC"/>
</linearGradient>
<linearGradient id="paint11_linear" x1="180.178" y1="116.916" x2="514.094" y2="116.916" gradientUnits="userSpaceOnUse">
<stop stop-color="#C5E8F8"/>
<stop offset="1" stop-color="#92C6E4"/>
</linearGradient>
<linearGradient id="paint12_linear" x1="322.946" y1="230.109" x2="483.658" y2="230.109" gradientUnits="userSpaceOnUse">
<stop stop-color="#C5E8F8"/>
<stop offset="1" stop-color="#92C6E4"/>
</linearGradient>
<linearGradient id="paint13_linear" x1="322.946" y1="256.999" x2="483.658" y2="256.999" gradientUnits="userSpaceOnUse">
<stop stop-color="#C5E8F8"/>
<stop offset="1" stop-color="#92C6E4"/>
</linearGradient>
<linearGradient id="paint14_linear" x1="322.946" y1="283.89" x2="483.658" y2="283.89" gradientUnits="userSpaceOnUse">
<stop stop-color="#C5E8F8"/>
<stop offset="1" stop-color="#92C6E4"/>
</linearGradient>
<linearGradient id="paint15_linear" x1="204.908" y1="166.673" x2="489.365" y2="166.673" gradientUnits="userSpaceOnUse">
<stop stop-color="#FF3726"/>
<stop offset="1" stop-color="#D72A1A"/>
</linearGradient>
<radialGradient id="paint16_radial" cx="0" cy="0" r="1" gradientUnits="userSpaceOnUse" gradientTransform="translate(201.074 133.124) scale(5.5737 5.64515)">
<stop stop-color="#FF3726"/>
<stop offset="1" stop-color="#D72A1A"/>
</radialGradient>
<radialGradient id="paint17_radial" cx="0" cy="0" r="1" gradientUnits="userSpaceOnUse" gradientTransform="translate(219.616 133.124) scale(5.5737 5.64515)">
<stop stop-color="#2C64B5"/>
<stop offset="1" stop-color="#2653AC"/>
</radialGradient>
<radialGradient id="paint18_radial" cx="0" cy="0" r="1" gradientUnits="userSpaceOnUse" gradientTransform="translate(238.157 133.124) scale(5.5737 5.64515)">
<stop stop-color="white"/>
<stop offset="1" stop-color="#DFF3FC"/>
</radialGradient>
<linearGradient id="paint19_linear" x1="204.908" y1="223.451" x2="299.686" y2="223.451" gradientUnits="userSpaceOnUse">
<stop stop-color="#C5E8F8"/>
<stop offset="1" stop-color="#92C6E4"/>
</linearGradient>
<linearGradient id="paint20_linear" x1="254.276" y1="223.265" x2="299.875" y2="223.265" gradientUnits="userSpaceOnUse">
<stop stop-color="#FF3726"/>
<stop offset="1" stop-color="#D72A1A"/>
</linearGradient>
<linearGradient id="paint21_linear" x1="249.437" y1="53.235" x2="275.212" y2="53.235" gradientUnits="userSpaceOnUse">
<stop stop-color="#FF3726"/>
<stop offset="1" stop-color="#D72A1A"/>
</linearGradient>
<linearGradient id="paint22_linear" x1="283.666" y1="53.235" x2="309.441" y2="53.235" gradientUnits="userSpaceOnUse">
<stop stop-color="#FF3726"/>
<stop offset="1" stop-color="#D72A1A"/>
</linearGradient>
<linearGradient id="paint23_linear" x1="317.893" y1="53.235" x2="343.668" y2="53.235" gradientUnits="userSpaceOnUse">
<stop stop-color="#C5E8F8"/>
<stop offset="1" stop-color="#92C6E4"/>
</linearGradient>
<linearGradient id="paint24_linear" x1="352.121" y1="53.235" x2="377.896" y2="53.235" gradientUnits="userSpaceOnUse">
<stop stop-color="#C5E8F8"/>
<stop offset="1" stop-color="#92C6E4"/>
</linearGradient>
<linearGradient id="paint25_linear" x1="341.113" y1="390.852" x2="366.888" y2="390.852" gradientUnits="userSpaceOnUse">
<stop stop-color="#FF3726"/>
<stop offset="1" stop-color="#D72A1A"/>
</linearGradient>
<linearGradient id="paint26_linear" x1="375.341" y1="390.852" x2="401.116" y2="390.852" gradientUnits="userSpaceOnUse">
<stop stop-color="#C5E8F8"/>
<stop offset="1" stop-color="#92C6E4"/>
</linearGradient>
<linearGradient id="paint27_linear" x1="409.569" y1="390.852" x2="435.344" y2="390.852" gradientUnits="userSpaceOnUse">
<stop stop-color="#C5E8F8"/>
<stop offset="1" stop-color="#92C6E4"/>
</linearGradient>
<linearGradient id="paint28_linear" x1="129.182" y1="-3.85527" x2="215.18" y2="-3.85527" gradientUnits="userSpaceOnUse">
<stop stop-color="#FF3726"/>
<stop offset="1" stop-color="#D72A1A"/>
</linearGradient>
<linearGradient id="paint29_linear" x1="554.803" y1="244.068" x2="601.108" y2="244.068" gradientUnits="userSpaceOnUse">
<stop stop-color="#FF3726"/>
<stop offset="1" stop-color="#D72A1A"/>
</linearGradient>
<linearGradient id="paint30_linear" x1="80.7032" y1="76.1318" x2="127.009" y2="76.1318" gradientUnits="userSpaceOnUse">
<stop stop-color="#FF3726"/>
<stop offset="1" stop-color="#D72A1A"/>
</linearGradient>
<linearGradient id="paint31_linear" x1="13.6894" y1="448.855" x2="25.6266" y2="458.419" gradientUnits="userSpaceOnUse">
<stop stop-color="#EB3E36"/>
<stop offset="1" stop-color="#992923"/>
</linearGradient>
<linearGradient id="paint32_linear" x1="32.9187" y1="424.233" x2="44.7521" y2="433.713" gradientUnits="userSpaceOnUse">
<stop stop-color="#EB3E36"/>
<stop offset="1" stop-color="#992923"/>
</linearGradient>
<linearGradient id="paint33_linear" x1="320.802" y1="347.142" x2="332.408" y2="357.113" gradientUnits="userSpaceOnUse">
<stop stop-color="#EB3E36"/>
<stop offset="1" stop-color="#992923"/>
</linearGradient>
<linearGradient id="paint34_linear" x1="68.0045" y1="350.734" x2="108.354" y2="350.734" gradientUnits="userSpaceOnUse">
<stop stop-color="#13257D"/>
<stop offset="1" stop-color="#141D52"/>
</linearGradient>
<radialGradient id="paint35_radial" cx="0" cy="0" r="1" gradientUnits="userSpaceOnUse" gradientTransform="translate(90.0723 373.486) scale(7.10978 7.20094)">
<stop stop-color="#C5E8F8"/>
<stop offset="1" stop-color="#92C6E4"/>
</radialGradient>
<linearGradient id="paint36_linear" x1="131.151" y1="427.701" x2="171.501" y2="427.701" gradientUnits="userSpaceOnUse">
<stop stop-color="#13257D"/>
<stop offset="1" stop-color="#141D52"/>
</linearGradient>
<radialGradient id="paint37_radial" cx="0" cy="0" r="1" gradientUnits="userSpaceOnUse" gradientTransform="translate(153.221 450.454) scale(7.10978 7.20094)">
<stop stop-color="#C5E8F8"/>
<stop offset="1" stop-color="#92C6E4"/>
</radialGradient>
<linearGradient id="paint38_linear" x1="198.607" y1="335.473" x2="238.957" y2="335.473" gradientUnits="userSpaceOnUse">
<stop stop-color="#13257D"/>
<stop offset="1" stop-color="#141D52"/>
</linearGradient>
<radialGradient id="paint39_radial" cx="0" cy="0" r="1" gradientUnits="userSpaceOnUse" gradientTransform="translate(220.676 358.225) scale(7.10978 7.20094)">
<stop stop-color="#C5E8F8"/>
<stop offset="1" stop-color="#92C6E4"/>
</radialGradient>
<linearGradient id="paint40_linear" x1="252.297" y1="388.444" x2="292.646" y2="388.444" gradientUnits="userSpaceOnUse">
<stop stop-color="#13257D"/>
<stop offset="1" stop-color="#141D52"/>
</linearGradient>
<radialGradient id="paint41_radial" cx="0" cy="0" r="1" gradientUnits="userSpaceOnUse" gradientTransform="translate(274.366 411.196) scale(7.10978 7.20094)">
<stop stop-color="#C5E8F8"/>
<stop offset="1" stop-color="#92C6E4"/>
</radialGradient>
<linearGradient id="paint42_linear" x1="301.293" y1="312.333" x2="355.255" y2="312.333" gradientUnits="userSpaceOnUse">
<stop stop-color="#FF3726"/>
<stop offset="1" stop-color="#D72A1A"/>
</linearGradient>
<linearGradient id="paint43_linear" x1="65.5644" y1="234.975" x2="139.326" y2="234.975" gradientUnits="userSpaceOnUse">
<stop stop-color="#13257D"/>
<stop offset="1" stop-color="#141D52"/>
</linearGradient>
<linearGradient id="paint44_linear" x1="546.274" y1="324.362" x2="574.24" y2="324.362" gradientUnits="userSpaceOnUse">
<stop stop-color="#D72A1A"/>
<stop offset="1" stop-color="#FF3726"/>
</linearGradient>
<linearGradient id="paint45_linear" x1="466.435" y1="311.71" x2="546.275" y2="311.71" gradientUnits="userSpaceOnUse">
<stop stop-color="#D72A1A"/>
<stop offset="1" stop-color="#FF3726"/>
</linearGradient>
<linearGradient id="paint46_linear" x1="499.206" y1="337.461" x2="513.974" y2="337.409" gradientUnits="userSpaceOnUse">
<stop stop-color="#C5E8F8"/>
<stop offset="1" stop-color="#92C6E4"/>
</linearGradient>
</defs>
</svg>
