<svg width="512" height="512" viewBox="0 0 512 512" fill="none" xmlns="http://www.w3.org/2000/svg">
<path d="M76 163L10 216V461C10 483.644 28.356 502 51 502H461C483.644 502 502 483.644 502 461V216L436 164.603" fill="#6BCDFE"/>
<path d="M432 10H80V391.06H432V10Z" fill="#EDF2FA"/>
<path d="M323 395.59H183.527L10 216V461C10 483.644 28.356 502 51 502H461C483.644 502 502 483.644 502 461V216L323 395.59Z" fill="#FFE179"/>
<path d="M44.0547 495L189.041 363.291C227.016 328.794 284.985 328.794 322.96 363.291L467.945 495H44.0547Z" fill="#FBD268"/>
<path d="M357.711 130.09C370.405 117.396 370.405 96.8151 357.711 84.1211C345.017 71.4271 324.436 71.4271 311.742 84.1211L357.711 130.09Z" fill="#F58A97"/>
<path d="M251.733 252.317L214.091 289.959C196.922 307.128 169.087 307.128 151.918 289.959C134.749 272.79 134.749 244.955 151.918 227.786L189.56 190.144L251.733 252.317Z" fill="#F58A97"/>
<path d="M251.745 252.336L295.801 296.392L269.047 323.147L224.975 279.075L251.745 252.336Z" fill="#6377E9"/>
<path d="M251.744 252.336L189.559 190.144L257.708 30.0869L411.744 184.123L251.744 252.336Z" fill="#6BCDFE"/>
<path d="M370.684 201.628L411.745 184.123L257.709 30.0869L240.219 71.1639L370.684 201.628Z" fill="white"/>
<path d="M190.93 58.93C189.07 60.79 188 63.37 188 66C188 68.63 189.07 71.21 190.93 73.069C192.79 74.93 195.37 76 198 76C200.63 76 203.21 74.93 205.07 73.069C206.93 71.21 208 68.63 208 66C208 63.37 206.93 60.79 205.07 58.93C203.21 57.07 200.63 56 198 56C195.37 56 192.79 57.069 190.93 58.93Z" fill="black"/>
<path d="M120.875 76H161.048C166.571 76 171.048 71.522 171.048 66C171.048 60.478 166.571 56 161.048 56H120.875C115.352 56 110.875 60.478 110.875 66C110.875 71.522 115.352 76 120.875 76Z" fill="black"/>
<path d="M120.875 132H169.069C174.592 132 179.069 127.522 179.069 122C179.069 116.478 174.592 112 169.069 112H120.875C115.352 112 110.875 116.478 110.875 122C110.875 127.522 115.352 132 120.875 132Z" fill="black"/>
<path d="M508.14 208.118C508.141 208.115 508.143 208.113 508.144 208.11L442.144 156.713C442.097 156.677 442.047 156.648 442 156.612V146C442 140.478 437.523 136 432 136C426.477 136 422 140.478 422 146V281.667C422 281.728 422.008 281.787 422.009 281.848L339.264 364.593L329.683 355.89C314.709 342.286 296.462 333.217 276.907 329.428L302.871 303.464C306.776 299.559 306.776 293.227 302.871 289.321L269.281 255.73L415.665 193.322C418.72 192.019 420.93 189.284 421.561 186.023C422.192 182.762 421.163 179.4 418.814 177.051L371.015 129.251C375.061 122.648 377.23 115.044 377.23 107.104C377.23 95.75 372.809 85.077 364.781 77.048C356.753 69.02 346.079 64.599 334.725 64.599C326.785 64.599 319.181 66.768 312.578 70.814L264.778 23.014C262.428 20.664 259.068 19.632 255.804 20.268C252.542 20.9 249.808 23.111 248.506 26.167L181.115 184.442L144.843 220.713C134.651 230.905 129.037 244.457 129.037 258.871C129.037 273.285 134.651 286.836 144.843 297.028C155.035 307.22 168.587 312.834 183.001 312.834C197.415 312.834 210.966 307.221 221.158 297.028L224.972 293.214L259.226 327.468C258.152 327.437 257.076 327.415 255.998 327.415C228.693 327.415 202.525 337.526 182.314 355.887L172.733 364.59L89.988 281.845C89.989 281.784 89.997 281.725 89.997 281.663V20H201.984C207.507 20 211.984 15.522 211.984 10C211.984 4.478 207.507 0 201.984 0H80C74.477 0 70 4.478 70 10V155.014C69.914 155.079 69.823 155.135 69.739 155.203L3.739 208.203C3.74 208.205 3.74 208.206 3.741 208.208C1.462 210.041 0 212.848 0 216V461C0 489.121 22.878 512 51 512H461C489.122 512 512 489.121 512 461V216C512 212.794 510.486 209.948 508.14 208.118ZM243.618 88.706L353.146 198.234L254.042 240.486L201.405 187.849L243.618 88.706ZM334.726 84.601C340.737 84.601 346.389 86.942 350.64 91.193C354.89 95.443 357.231 101.094 357.231 107.106C357.231 109.586 356.811 111.997 356.044 114.282L327.55 85.787C329.835 85.02 332.246 84.601 334.726 84.601ZM261.108 47.629L304.658 91.179C304.662 91.183 304.666 91.188 304.67 91.193C304.674 91.198 304.679 91.201 304.684 91.205L350.639 137.16C350.639 137.161 350.64 137.161 350.64 137.162C350.64 137.163 350.641 137.163 350.642 137.163L394.208 180.729L372.978 189.78L252.065 68.867L261.108 47.629ZM183.003 292.836C173.931 292.836 165.402 289.303 158.987 282.888C152.572 276.474 149.039 267.945 149.039 258.873C149.039 249.801 152.572 241.272 158.987 234.857L189.558 204.286L237.587 252.32L207.018 282.888C200.604 289.303 192.075 292.836 183.003 292.836ZM251.728 266.463L281.658 296.393L269.046 309.004L239.116 279.074L251.728 266.463ZM442 181.949L486.924 216.933L442 261.857V181.949ZM195.765 370.692C230.105 339.497 281.896 339.497 316.236 370.692L449.77 492H62.23L95.254 462H168.657C174.18 462 178.657 457.522 178.657 452C178.657 446.478 174.18 442 168.657 442H117.27L195.765 370.692ZM70 180.643V261.858L24.957 216.815L70 180.643ZM20 461V240.143L157.915 378.057L37.331 487.599C37.048 487.856 36.787 488.129 36.54 488.409C26.713 483.204 20 472.874 20 461ZM475.46 488.409C475.213 488.128 474.952 487.856 474.669 487.599L354.086 378.057L492 240.143V461C492 472.874 485.287 483.204 475.46 488.409Z" fill="black"/>
<path d="M392 60.792C394.559 60.792 397.119 59.815 399.071 57.863L439.467 17.467C443.372 13.562 443.372 7.23 439.467 3.324C435.562 -0.580004 429.23 -0.580004 425.325 3.324L384.929 43.72C381.024 47.625 381.024 53.957 384.929 57.863C386.882 59.815 389.441 60.792 392 60.792Z" fill="black"/>
<path d="M354.412 40.087C359.935 40.087 364.412 35.609 364.412 30.087V10C364.412 4.478 359.935 0 354.412 0C348.889 0 344.412 4.478 344.412 10V30.087C344.412 35.609 348.889 40.087 354.412 40.087Z" fill="black"/>
<path d="M432.689 77.521H411.93C406.407 77.521 401.93 81.999 401.93 87.521C401.93 93.043 406.407 97.521 411.93 97.521H432.689C438.212 97.521 442.689 93.043 442.689 87.521C442.689 81.999 438.212 77.521 432.689 77.521Z" fill="black"/>
<path d="M209.66 462C212.29 462 214.86 460.93 216.73 459.069C218.59 457.21 219.66 454.63 219.66 452C219.66 449.37 218.59 446.79 216.73 444.93C214.86 443.07 212.29 442 209.66 442C207.02 442 204.45 443.069 202.58 444.93C200.72 446.79 199.66 449.37 199.66 452C199.66 454.63 200.72 457.21 202.58 459.069C204.45 460.93 207.03 462 209.66 462Z" fill="black"/>
</svg>
