<svg width="48" height="39" viewBox="0 0 48 39" fill="none" xmlns="http://www.w3.org/2000/svg">
<g clip-path="url(#clip0)">
<path d="M41.6827 6.83398C42.7057 6.76398 43.6547 6.367 44.3237 5.729C44.9927 5.09 45.3287 4.262 45.2597 3.422C45.3327 2.58 44.9977 1.74897 44.3277 1.10797C43.6587 0.467971 42.7077 0.07 41.6827 0C40.6557 0.067 39.7017 0.46498 39.0297 1.10498C38.3577 1.74598 38.0217 2.579 38.0947 3.422C38.0247 4.263 38.3627 5.09299 39.0347 5.73199C39.7057 6.37099 40.6577 6.76598 41.6827 6.83398ZM41.6827 1.31598C42.3137 1.35898 42.8977 1.60399 43.3097 1.99799C43.7217 2.39299 43.9277 2.904 43.8837 3.422C43.9357 3.684 43.9167 3.95197 43.8297 4.20697C43.7427 4.46297 43.5887 4.69998 43.3787 4.90198C43.1697 5.10498 42.9087 5.26699 42.6147 5.37799C42.3207 5.48999 42.0007 5.547 41.6767 5.547C41.3537 5.547 41.0337 5.48999 40.7397 5.37799C40.4457 5.26699 40.1847 5.10498 39.9747 4.90198C39.7647 4.69998 39.6117 4.46297 39.5237 4.20697C39.4367 3.95197 39.4187 3.684 39.4707 3.422C39.4257 2.902 39.6337 2.39 40.0477 1.995C40.4627 1.601 41.0497 1.35698 41.6827 1.31598ZM41.6707 7.74597C38.7707 7.74597 36.4097 9.99201 36.4097 12.765V13.16C36.3617 13.713 36.5817 14.258 37.0217 14.679C37.4617 15.1 38.0857 15.361 38.7597 15.407H44.6177C45.2997 15.347 45.9277 15.075 46.3707 14.646C46.8147 14.217 47.0407 13.665 47.0017 13.104V12.756C47.0017 9.99198 44.6177 7.74597 41.6707 7.74597ZM45.6257 13.104C45.6267 13.339 45.5207 13.566 45.3277 13.74C45.1347 13.914 44.8687 14.022 44.5827 14.044H38.7247C38.4437 14.024 38.1837 13.915 38.0007 13.739C37.8187 13.562 37.7287 13.334 37.7507 13.104V12.718C37.6747 11.806 38.0397 10.906 38.7667 10.213C39.4947 9.51901 40.5257 9.08902 41.6367 9.01501C42.7557 9.08001 43.7987 9.50398 44.5397 10.196C45.2797 10.887 45.6577 11.79 45.5917 12.709L45.6257 13.104ZM45.2597 26.564C45.3327 25.723 44.9977 24.892 44.3277 24.251C43.6587 23.611 42.7077 23.212 41.6827 23.143C40.6557 23.21 39.7017 23.607 39.0297 24.248C38.3577 24.889 38.0217 25.721 38.0947 26.564C38.0247 27.406 38.3627 28.236 39.0347 28.875C39.7057 29.513 40.6577 29.909 41.6827 29.977C42.7057 29.907 43.6547 29.51 44.3237 28.872C44.9927 28.233 45.3287 27.404 45.2597 26.564ZM39.5277 26.564C39.4757 26.302 39.4947 26.034 39.5817 25.779C39.6687 25.523 39.8227 25.286 40.0327 25.084C40.2417 24.882 40.5027 24.719 40.7967 24.608C41.0907 24.497 41.4107 24.439 41.7347 24.439C42.0577 24.439 42.3777 24.497 42.6717 24.608C42.9657 24.719 43.2267 24.882 43.4367 25.084C43.6467 25.286 43.7997 25.523 43.8877 25.779C43.9747 26.034 43.9927 26.302 43.9407 26.564C43.9927 26.826 43.9747 27.095 43.8877 27.35C43.7997 27.606 43.6467 27.843 43.4367 28.045C43.2267 28.247 42.9657 28.41 42.6717 28.521C42.3777 28.632 42.0577 28.69 41.7347 28.69C41.4107 28.69 41.0907 28.632 40.7967 28.521C40.5027 28.41 40.2417 28.247 40.0327 28.045C39.8227 27.843 39.6687 27.606 39.5817 27.35C39.4947 27.095 39.4757 26.826 39.5277 26.564ZM41.6717 30.888C38.7707 30.888 36.4097 33.135 36.4097 35.908V36.293C36.3617 36.842 36.5767 37.383 37.0097 37.803C37.4427 38.223 38.0577 38.487 38.7257 38.54H44.5827C45.2697 38.487 45.9037 38.219 46.3547 37.792C46.8057 37.365 47.0377 36.811 47.0017 36.246V35.899C47.0017 33.135 44.6177 30.888 41.6717 30.888ZM45.6267 36.246C45.6277 36.482 45.5207 36.709 45.3277 36.883C45.1347 37.057 44.8687 37.165 44.5827 37.186H38.7257C38.4447 37.167 38.1837 37.058 38.0017 36.881C37.8187 36.705 37.7287 36.477 37.7507 36.246V35.908C37.7037 35.452 37.7667 34.992 37.9367 34.556C38.1067 34.12 38.3807 33.716 38.7417 33.366C39.1027 33.017 39.5447 32.729 40.0407 32.52C40.5377 32.311 41.0807 32.185 41.6367 32.148C42.7577 32.216 43.8007 32.642 44.5407 33.335C45.2807 34.028 45.6577 34.932 45.5917 35.852L45.6267 36.246ZM26.5737 2.65997H17.4037C15.0447 2.68497 12.7217 3.13198 10.5967 3.97198C8.47166 4.81098 6.59671 6.02302 5.10271 7.52002C1.74571 10.811 -0.0633074 14.979 0.00169259 19.27C-0.0283074 21.608 0.5057 23.927 1.5717 26.095C2.6377 28.263 4.21571 30.237 6.21471 31.904C6.28071 31.958 6.36071 32.001 6.44871 32.027C6.53671 32.053 6.63068 32.063 6.72368 32.056C6.81768 32.049 6.90769 32.025 6.98869 31.985C7.06869 31.946 7.13768 31.892 7.18968 31.828C7.30868 31.688 7.36567 31.518 7.35167 31.347C7.33667 31.176 7.25166 31.014 7.10966 30.888C3.57266 27.96 1.52367 24.039 1.37767 19.919H9.17271C9.52771 23.942 13.0707 27.11 17.3577 27.11H20.2927V34.554H17.5407C14.7327 34.543 11.9907 33.857 9.65367 32.58C9.57367 32.539 9.48369 32.513 9.38969 32.503C9.29669 32.494 9.20068 32.502 9.11168 32.526C9.02168 32.55 8.93971 32.59 8.87071 32.644C8.80171 32.697 8.74867 32.762 8.71367 32.834C8.60967 32.99 8.57867 33.172 8.62767 33.345C8.67567 33.519 8.80071 33.671 8.97771 33.774C11.5177 35.155 14.4937 35.899 17.5407 35.917H26.5737C26.6717 35.911 26.7677 35.89 26.8557 35.853C26.9427 35.817 27.0207 35.767 27.0847 35.706C27.1487 35.645 27.1977 35.574 27.2277 35.497C27.2577 35.42 27.2697 35.34 27.2617 35.259V26.461C27.2697 26.381 27.2577 26.3 27.2277 26.223C27.1977 26.147 27.1487 26.076 27.0847 26.015C27.0207 25.954 26.9427 25.903 26.8557 25.867C26.7677 25.831 26.6717 25.809 26.5737 25.803H17.4037C13.6437 25.803 10.5257 22.87 10.5257 19.27C10.5077 17.683 11.1327 16.136 12.3027 14.871C12.4387 14.74 12.5137 14.573 12.5137 14.401C12.5137 14.228 12.4387 14.062 12.3027 13.931C12.2397 13.875 12.1637 13.831 12.0777 13.802C11.9917 13.773 11.8997 13.761 11.8067 13.765C11.7147 13.77 11.6247 13.791 11.5437 13.828C11.4627 13.865 11.3927 13.916 11.3397 13.978C10.0747 15.313 9.32071 16.926 9.17271 18.612H1.38872C1.50572 14.89 3.15868 11.311 6.07768 8.46002C7.45168 7.08202 9.17572 5.96702 11.1307 5.19202C13.0847 4.41802 15.2217 4.00301 17.3917 3.97601H20.2927V11.421H17.3917C16.2817 11.422 15.1867 11.634 14.1937 12.041C14.0187 12.128 13.8877 12.262 13.8227 12.42C13.7577 12.579 13.7627 12.751 13.8387 12.906C13.8637 12.98 13.9077 13.049 13.9677 13.108C14.0277 13.167 14.1037 13.215 14.1887 13.248C14.2727 13.281 14.3657 13.299 14.4597 13.3C14.5537 13.301 14.6467 13.285 14.7327 13.254C15.5587 12.917 16.4687 12.74 17.3917 12.737H26.5627C26.6607 12.731 26.7567 12.709 26.8437 12.673C26.9317 12.637 27.0097 12.586 27.0737 12.525C27.1377 12.464 27.1857 12.393 27.2167 12.317C27.2467 12.24 27.2587 12.159 27.2507 12.079V3.31799C27.2587 3.23799 27.2467 3.15699 27.2167 3.08099C27.1857 3.00399 27.1377 2.93301 27.0737 2.87201C27.0097 2.81101 26.9317 2.761 26.8437 2.724C26.7567 2.688 26.6607 2.66597 26.5627 2.65997H26.5737ZM25.8867 34.564H21.6677V27.119H25.8867V34.564ZM25.8867 11.421H21.6677V3.97601H25.8867V11.421ZM29.2337 3.97601H34.1967C34.3937 3.96201 34.5757 3.88502 34.7047 3.76202C34.8327 3.63902 34.8977 3.47999 34.8847 3.31799C34.8927 3.23799 34.8807 3.15699 34.8507 3.08099C34.8207 3.00399 34.7717 2.93301 34.7077 2.87201C34.6437 2.81101 34.5657 2.761 34.4787 2.724C34.3907 2.688 34.2947 2.66597 34.1967 2.65997H29.2337C29.1357 2.66597 29.0397 2.688 28.9527 2.724C28.8647 2.761 28.7867 2.81101 28.7227 2.87201C28.6587 2.93301 28.6097 3.00399 28.5797 3.08099C28.5497 3.15699 28.5377 3.23799 28.5457 3.31799C28.5327 3.47999 28.5977 3.63902 28.7257 3.76202C28.8547 3.88502 29.0367 3.96201 29.2337 3.97601ZM28.7287 12.079C28.7167 12.242 28.7827 12.403 28.9137 12.526C29.0447 12.649 29.2297 12.725 29.4287 12.737H33.2457C33.4347 12.711 33.6077 12.63 33.7317 12.51C33.8557 12.389 33.9237 12.237 33.9237 12.079C33.9237 11.921 33.8557 11.769 33.7317 11.648C33.6077 11.528 33.4347 11.447 33.2457 11.421H29.4287C29.2297 11.433 29.0447 11.509 28.9137 11.632C28.7827 11.755 28.7167 11.916 28.7287 12.079ZM33.8307 7.69897C33.8227 7.77897 33.8337 7.85997 33.8647 7.93597C33.8947 8.01297 33.9437 8.08402 34.0077 8.14502C34.0707 8.20602 34.1497 8.25603 34.2367 8.29303C34.3247 8.32903 34.4197 8.351 34.5177 8.35699H36.4897C36.5877 8.351 36.6837 8.32903 36.7707 8.29303C36.8587 8.25603 36.9367 8.20602 37.0007 8.14502C37.0647 8.08402 37.1127 8.01297 37.1437 7.93597C37.1737 7.85997 37.1857 7.77897 37.1777 7.69897C37.1857 7.61797 37.1737 7.538 37.1437 7.461C37.1127 7.384 37.0647 7.31401 37.0007 7.25201C36.9367 7.19101 36.8587 7.14098 36.7707 7.10498C36.6837 7.06798 36.5877 7.04702 36.4897 7.04102H34.5177C34.4197 7.04702 34.3247 7.06798 34.2367 7.10498C34.1497 7.14098 34.0707 7.19101 34.0077 7.25201C33.9437 7.31401 33.8947 7.384 33.8647 7.461C33.8337 7.538 33.8227 7.61797 33.8307 7.69897ZM31.5837 8.35699C31.6817 8.351 31.7767 8.32903 31.8647 8.29303C31.9517 8.25603 32.0297 8.20602 32.0937 8.14502C32.1577 8.08402 32.2067 8.01297 32.2367 7.93597C32.2677 7.85997 32.2787 7.77897 32.2707 7.69897C32.2787 7.61797 32.2677 7.538 32.2367 7.461C32.2067 7.384 32.1577 7.31401 32.0937 7.25201C32.0297 7.19101 31.9517 7.14098 31.8647 7.10498C31.7767 7.06798 31.6817 7.04702 31.5837 7.04102H29.8067C29.6077 7.05302 29.4227 7.12901 29.2917 7.25201C29.1607 7.37501 29.0947 7.53597 29.1077 7.69897C29.0947 7.86197 29.1607 8.022 29.2917 8.146C29.4227 8.269 29.6077 8.34499 29.8067 8.35699H31.5837ZM34.1967 34.564H29.2337C29.0437 34.59 28.8717 34.671 28.7477 34.791C28.6237 34.912 28.5557 35.064 28.5557 35.222C28.5557 35.379 28.6237 35.532 28.7477 35.652C28.8717 35.773 29.0437 35.853 29.2337 35.88H34.1967C34.3867 35.853 34.5587 35.773 34.6827 35.652C34.8067 35.532 34.8747 35.379 34.8747 35.222C34.8747 35.064 34.8067 34.912 34.6827 34.791C34.5587 34.671 34.3867 34.59 34.1967 34.564ZM33.9677 26.461C33.9757 26.381 33.9637 26.3 33.9337 26.223C33.9037 26.147 33.8547 26.076 33.7907 26.015C33.7267 25.954 33.6487 25.903 33.5607 25.867C33.4737 25.831 33.3777 25.809 33.2797 25.803H29.4287C29.2387 25.829 29.0667 25.91 28.9427 26.03C28.8187 26.151 28.7507 26.303 28.7507 26.461C28.7507 26.619 28.8187 26.771 28.9427 26.892C29.0667 27.012 29.2387 27.093 29.4287 27.119H33.2457C33.3457 27.115 33.4447 27.095 33.5357 27.06C33.6267 27.025 33.7077 26.975 33.7747 26.914C33.8427 26.853 33.8937 26.781 33.9267 26.703C33.9597 26.626 33.9737 26.543 33.9677 26.461ZM33.6007 31.499H36.4897C36.6797 31.473 36.8517 31.392 36.9757 31.272C37.0997 31.152 37.1677 30.999 37.1677 30.841C37.1677 30.684 37.0997 30.531 36.9757 30.411C36.8517 30.29 36.6797 30.21 36.4897 30.183H33.6007C33.4117 30.21 33.2397 30.29 33.1157 30.411C32.9917 30.531 32.9237 30.684 32.9237 30.841C32.9237 30.999 32.9917 31.152 33.1157 31.272C33.2397 31.392 33.4117 31.473 33.6007 31.499ZM29.8067 30.183C29.6167 30.21 29.4447 30.29 29.3207 30.411C29.1967 30.531 29.1287 30.684 29.1287 30.841C29.1287 30.999 29.1967 31.152 29.3207 31.272C29.4447 31.392 29.6167 31.473 29.8067 31.499H30.6777C30.8677 31.473 31.0397 31.392 31.1637 31.272C31.2877 31.152 31.3557 30.999 31.3557 30.841C31.3557 30.684 31.2877 30.531 31.1637 30.411C31.0397 30.29 30.8677 30.21 30.6777 30.183H29.8067Z" fill="white"/>
</g>
<defs>
<clipPath id="clip0">
<rect width="48" height="39" fill="white"/>
</clipPath>
</defs>
</svg>
