<svg width="512" height="512" viewBox="0 0 512 512" fill="none" xmlns="http://www.w3.org/2000/svg">
<g clip-path="url(#clip0)">
<path d="M341.892 385.587L407.713 354.513L250.4 334.624L270.289 491.937L301.669 425.81L377.859 502L418.082 461.777L341.892 385.587Z" fill="#F9F5F3"/>
<path d="M460.459 234.382V394.17C460.459 411.558 446.363 425.654 428.975 425.654H381.963L341.896 385.587L407.718 354.511L250.399 334.623L261.912 425.654H83.0231C65.6351 425.654 51.5391 411.558 51.5391 394.17V234.382C51.5391 216.994 65.6351 202.898 83.0231 202.898H428.975C446.363 202.897 460.459 216.993 460.459 234.382Z" fill="#8FD8FA"/>
<path d="M428 211H374C388.911 211 401 226.447 401 245.5V383.5C401 402.553 388.911 418 374 418H428C442.911 418 455 402.553 455 383.5V245.5C455 226.447 442.911 211 428 211V211Z" fill="#6BCDFE"/>
<path d="M304.531 119.912C304.531 151.503 290.577 182.212 266.663 202.898H122.585C98.6808 182.185 84.7168 151.522 84.7168 119.912C84.7168 74.221 114.043 32.27 156.977 16.618C169.02 12.228 181.813 10 194.629 10C239.868 10 281.511 38.773 297.485 81.113C302.152 93.485 304.531 106.692 304.531 119.912V119.912Z" fill="#FBD268"/>
<path d="M425.013 153.248C425.013 172.192 418.132 189.535 406.729 202.898H290.186C286.425 198.497 283.165 193.676 280.484 188.505C290.106 176.963 297.417 162.41 300.948 147.817C305.929 130.193 305.669 110.689 301.208 93.0061C314.211 82.7841 330.614 76.6931 348.447 76.6931C390.736 76.6931 425.013 110.97 425.013 153.248Z" fill="#FBD268"/>
<path d="M41.5391 234.382V394.17C41.5391 417.045 60.1481 435.654 83.0231 435.654H108.638C114.16 435.654 118.638 431.176 118.638 425.654C118.638 420.132 114.16 415.654 108.638 415.654H83.0231C71.1761 415.654 61.5391 406.016 61.5391 394.17V234.382C61.5391 222.535 71.1771 212.898 83.0231 212.898H428.974C440.821 212.898 450.458 222.536 450.458 234.382V394.17C450.458 406.017 440.82 415.654 428.974 415.654H386.105L359.014 388.563L411.987 363.554C416.008 361.656 418.292 357.331 417.593 352.941C416.894 348.551 413.382 345.148 408.971 344.59L251.653 324.701C248.586 324.315 245.513 325.365 243.328 327.551C241.416 329.463 240.371 332.056 240.4 334.729C240.404 335.111 240.43 335.494 240.478 335.877L250.564 415.653H196.251C190.729 415.653 186.251 420.131 186.251 425.653C186.251 431.175 190.729 435.653 196.251 435.653H253.093L260.368 493.19C260.925 497.597 264.323 501.109 268.709 501.81C273.095 502.513 277.42 500.237 279.323 496.223L304.624 442.906L370.788 509.07C372.741 511.022 375.3 511.999 377.859 511.999C380.418 511.999 382.977 511.022 384.93 509.07L425.153 468.847C429.058 464.942 429.058 458.61 425.153 454.704L406.101 435.652H428.974C451.849 435.652 470.458 417.043 470.458 394.168V234.382C470.458 211.507 451.849 192.898 428.974 192.898H425.385C431.657 180.723 435.012 167.135 435.012 153.249C435.012 145.512 433.969 137.788 431.911 130.294C430.448 124.968 424.947 121.835 419.62 123.298C414.294 124.761 411.162 130.264 412.624 135.589C414.209 141.359 415.012 147.3 415.012 153.249C415.012 167.569 410.39 181.484 401.917 192.898H294.993C294.125 191.732 293.296 190.539 292.509 189.322C311.528 163.102 318.53 128.986 312.398 97.286C323.114 90.338 335.458 86.694 348.448 86.694C351.437 86.694 354.537 86.913 357.659 87.344C363.135 88.105 368.18 84.28 368.934 78.809C369.691 73.338 365.87 68.289 360.399 67.534C356.372 66.976 352.35 66.694 348.448 66.694C333.618 66.694 319.434 70.356 306.754 77.367C289.187 31.083 244.16 0 194.628 0C180.517 0 166.696 2.431 153.552 7.223C130.552 15.608 110.841 30.839 96.5521 51.269C82.2681 71.693 74.7171 95.429 74.7171 119.913C74.7171 146.559 83.5611 172.151 99.4961 192.898H83.0231C60.1481 192.897 41.5391 211.507 41.5391 234.382V234.382ZM377.859 487.857L308.74 418.738C306.848 416.846 304.298 415.809 301.669 415.809C301.104 415.809 300.533 415.857 299.966 415.955C296.763 416.509 294.028 418.585 292.635 421.521L275.919 456.746L271.838 424.469C271.835 424.445 271.836 424.422 271.833 424.398L261.939 346.161L372.397 360.127L337.624 376.543C334.682 377.933 332.599 380.667 332.041 383.873C331.483 387.079 332.521 390.355 334.822 392.657L403.941 461.776L377.859 487.857ZM94.7171 119.912C94.7171 65.596 140.398 20 194.628 20C248.917 20 294.53 65.718 294.53 119.912C294.53 147.28 282.74 174.288 262.831 192.897H126.42C106.507 174.259 94.7171 147.25 94.7171 119.912V119.912Z" fill="black"/>
<path d="M260.646 292.32C266.168 292.32 270.646 287.842 270.646 282.32V253.378C270.646 247.856 266.168 243.378 260.646 243.378C255.124 243.378 250.646 247.856 250.646 253.378V282.32C250.646 287.843 255.124 292.32 260.646 292.32Z" fill="black"/>
<path d="M166.398 357.314C166.398 362.836 170.876 367.314 176.398 367.314H206.583C212.105 367.314 216.583 362.836 216.583 357.314C216.583 351.792 212.105 347.314 206.583 347.314H176.398C170.876 347.314 166.398 351.792 166.398 357.314Z" fill="black"/>
<path d="M209.87 311.571C211.753 313.175 214.058 313.96 216.351 313.96C219.179 313.96 221.99 312.767 223.967 310.446C227.549 306.242 227.045 299.93 222.842 296.348L198.725 275.797C194.52 272.214 188.208 272.72 184.627 276.922C181.045 281.126 181.549 287.438 185.752 291.02L209.87 311.571Z" fill="black"/>
<path d="M161.61 420.1C159.283 416.541 154.707 414.887 150.633 416.024C146.439 417.195 143.407 421.039 143.306 425.405C143.099 434.292 154.339 439.063 160.522 432.57C163.716 429.217 164.187 423.961 161.61 420.1V420.1Z" fill="black"/>
<path d="M391.39 101.93C393.723 105.49 398.291 107.145 402.372 106.009C406.567 104.842 409.592 100.981 409.695 96.624C409.898 88.073 399.524 83.255 393.112 88.863C389.383 92.124 388.65 97.813 391.39 101.93Z" fill="black"/>
<path d="M208.543 99.32C206.788 98.7 204.999 98.055 203.209 97.388V66.081C205.394 66.829 207.591 67.897 209.374 69.385C211.274 70.97 213.239 72.076 215.809 72.076C220.781 72.076 224.812 68.045 224.812 63.073C224.812 60.272 223.533 57.771 221.533 56.113C221.114 55.727 214.336 49.622 203.209 47.525V45.405C203.209 40.434 199.18 36.405 194.209 36.405C189.238 36.405 185.209 40.434 185.209 45.405V48.144C184.493 48.323 183.77 48.521 183.038 48.741C171.948 52.081 163.666 61.553 161.423 73.459C159.366 84.369 162.899 94.918 170.64 100.99C174.401 103.94 179.006 106.643 185.209 109.463V150.506C180.544 149.936 177.136 148.475 171.731 144.938C167.571 142.216 161.994 143.384 159.272 147.543C156.551 151.703 157.718 157.28 161.877 160.002C170.998 165.967 177.384 167.981 185.208 168.595V171.335C185.208 176.306 189.237 180.335 194.208 180.335C199.179 180.335 203.208 176.306 203.208 171.335V167.744C218.996 163.899 229.121 150.485 231.345 137.258C234.227 120.126 225.275 105.234 208.543 99.32V99.32ZM185.209 89.194C183.947 88.423 182.778 87.635 181.748 86.828C179.352 84.949 178.316 81.01 179.111 76.794C179.733 73.494 181.65 69.64 185.209 67.368V89.194ZM213.595 134.275C212.667 139.796 209.142 145.619 203.209 148.674V116.544C214.834 121.04 214.109 131.216 213.595 134.275Z" fill="black"/>
</g>
<defs>
<clipPath id="clip0">
<rect width="512" height="512" fill="white"/>
</clipPath>
</defs>
</svg>
