<svg width="48" height="48" viewBox="0 0 48 48" fill="none" xmlns="http://www.w3.org/2000/svg">
<g clip-path="url(#clip0)">
<path d="M45.165 14.066C44.773 12.53 44.163 11.06 43.353 9.698L44.5 7.88702L39.318 2.763L37.507 3.85199C36.146 3.04199 34.675 2.43198 33.14 2.03998L32.635 0H25.425L24.909 2.03998C23.377 2.43198 21.91 3.04199 20.553 3.85199L18.741 2.763L13.583 7.88702L14.672 9.698C13.846 11.057 13.221 12.528 12.815 14.066L10.774 14.57V21.78L12.815 22.296C12.872 22.56 12.941 22.835 13.01 23.11C12.779 23.623 12.599 24.156 12.471 24.704C12.186 26.175 12.305 27.696 12.815 29.106L1.92501 38.357C1.37001 38.781 0.91202 39.32 0.58202 39.936C0.25102 40.552 0.0570054 41.23 0.0110054 41.93C-0.0359946 42.63 0.0680145 43.33 0.314014 43.98C0.560014 44.63 0.943 45.23 1.437 45.72C1.931 46.22 2.52501 46.6 3.18001 46.85C3.83401 47.09 4.533 47.19 5.23 47.15C5.928 47.1 6.60701 46.91 7.22301 46.58C7.83901 46.25 8.378 45.79 8.803 45.23L18.042 34.402C19.455 34.865 20.966 34.948 22.421 34.642C22.969 34.515 23.502 34.334 24.015 34.104L24.829 34.299L25.425 36.385H32.67L33.14 34.39C34.675 33.999 36.146 33.389 37.507 32.579L39.318 33.668L44.442 28.544L43.296 26.733C44.106 25.375 44.716 23.908 45.107 22.377L47.205 21.78V14.57L45.165 14.066ZM22.146 33.244C20.804 33.532 19.407 33.412 18.134 32.9L17.63 32.705L7.691 44.29C7.405 44.71 7.032 45.06 6.596 45.32C6.161 45.57 5.67401 45.73 5.17101 45.78C4.66801 45.82 4.16002 45.76 3.68502 45.59C3.21002 45.42 2.77801 45.14 2.42101 44.78C2.06301 44.43 1.789 44 1.618 43.52C1.446 43.04 1.382 42.54 1.428 42.03C1.475 41.53 1.63202 41.04 1.88802 40.609C2.14402 40.173 2.49299 39.8 2.90999 39.514L14.546 29.564L14.351 29.06C13.837 27.791 13.717 26.397 14.007 25.059C14.252 23.913 14.792 22.851 15.574 21.978C16.357 21.105 17.354 20.452 18.466 20.084C19.178 19.836 19.925 19.708 20.679 19.706C21.063 19.705 21.446 19.736 21.825 19.797L18.948 22.675C18.238 23.349 17.785 24.248 17.664 25.22C17.6 25.812 17.67 26.41 17.868 26.972C18.067 27.533 18.389 28.043 18.81 28.464C19.227 28.887 19.735 29.209 20.295 29.408C20.855 29.606 21.452 29.676 22.043 29.61C22.988 29.489 23.864 29.053 24.53 28.372L27.408 25.495C27.672 27.212 27.276 28.966 26.3 30.403C25.324 31.841 23.84 32.856 22.146 33.244ZM16.884 18.192C16.884 15.794 17.596 13.449 18.928 11.454C20.261 9.45998 22.155 7.905 24.371 6.987C26.588 6.069 29.026 5.829 31.379 6.297C33.731 6.765 35.893 7.92003 37.589 9.61603C39.285 11.313 40.44 13.474 40.908 15.826C41.376 18.179 41.136 20.618 40.218 22.834C39.3 25.05 37.745 26.944 35.751 28.277C33.756 29.609 31.411 30.321 29.013 30.321C28.715 30.338 28.416 30.338 28.119 30.321C28.293 29.981 28.442 29.628 28.566 29.266C29.196 27.482 29.196 25.536 28.566 23.752L28.164 22.606L23.51 27.249C23.094 27.69 22.54 27.977 21.94 28.062C21.574 28.1 21.204 28.056 20.857 27.933C20.51 27.809 20.195 27.61 19.935 27.35C19.675 27.09 19.476 26.775 19.353 26.428C19.23 26.082 19.185 25.712 19.223 25.346C19.304 24.744 19.592 24.189 20.037 23.775L24.68 19.121L23.533 18.72C21.748 18.095 19.804 18.095 18.019 18.72C17.654 18.845 17.298 18.994 16.953 19.167V18.273L16.884 18.192ZM45.692 20.634L43.892 21.081L43.789 21.54C43.408 23.219 42.741 24.821 41.817 26.274L41.577 26.675L42.528 28.257L39.089 31.696L37.496 30.745L37.106 30.997C35.632 31.929 34.006 32.597 32.303 32.969L31.856 33.072L31.409 34.872H26.571L26.124 33.072H25.906C26.389 32.678 26.828 32.232 27.213 31.742C27.809 31.833 28.41 31.879 29.013 31.88C31.711 31.88 34.348 31.08 36.591 29.581C38.835 28.082 40.583 25.951 41.616 23.459C42.648 20.966 42.918 18.223 42.392 15.577C41.866 12.931 40.566 10.5 38.659 8.59198C36.751 6.68498 34.32 5.38501 31.674 4.85901C29.028 4.33301 26.285 4.60301 23.792 5.63501C21.3 6.66801 19.169 8.41597 17.67 10.66C16.171 12.903 15.371 15.54 15.371 18.238C15.372 18.841 15.418 19.442 15.509 20.038C15.016 20.424 14.569 20.867 14.179 21.356V21.127L12.333 20.634V15.751L14.133 15.304L14.236 14.857C14.629 13.17 15.312 11.564 16.254 10.111L16.506 9.71002L15.555 8.12799L18.994 4.68903L20.576 5.64001L20.977 5.39899C22.417 4.48499 24.003 3.82203 25.665 3.43903L26.124 3.336L26.571 1.513H31.454L31.901 3.31299L32.303 3.43903C34.001 3.80603 35.622 4.466 37.094 5.388L37.484 5.62903L39.078 4.677L42.517 8.11603L41.565 9.71002L41.806 10.099C42.733 11.574 43.397 13.2 43.766 14.902L43.869 15.35L45.669 15.797L45.692 20.634Z" fill="white"/>
<path d="M27.4986 21.2301H38.1026V10.6151H33.5175V12.1281H30.5256V15.1661H27.4986V21.2301ZM35.0766 12.1281H36.5896V19.7061H35.0766V12.1281ZM33.5636 13.6411V19.7061H32.0386V13.6411H33.5636ZM28.9776 16.6791H30.4906V19.7061H29.0126L28.9776 16.6791ZM26.2155 9.53815L25.7455 8.09314C24.1335 8.60914 22.6696 9.5031 21.4726 10.6991C20.2766 11.8951 19.3835 13.3601 18.8675 14.9711L20.3115 15.4411C20.7535 14.0571 21.5196 12.8001 22.5466 11.7731C23.5736 10.7451 24.8315 9.97915 26.2155 9.53815ZM29.0126 9.10211V7.57715C28.4636 7.57915 27.9155 7.62112 27.3725 7.70312L27.6135 9.17114C28.0775 9.11314 28.5446 9.09011 29.0126 9.10211ZM5.51256 39.4231C5.05856 39.4231 4.61554 39.5571 4.23854 39.8091C3.86154 40.0611 3.56755 40.4191 3.39455 40.8381C3.22055 41.2601 3.17554 41.7201 3.26354 42.1601C3.35254 42.6101 3.57056 43.0201 3.89156 43.3401C4.21156 43.6601 4.62054 43.8801 5.06554 43.9601C5.50954 44.0501 5.97055 44.0101 6.38955 43.8301C6.80855 43.6601 7.16654 43.3701 7.41854 42.9901C7.67054 42.6101 7.80556 42.1701 7.80556 41.7201C7.80556 41.1101 7.56353 40.5241 7.13353 40.0941C6.70353 39.6641 6.12056 39.4231 5.51256 39.4231ZM5.51256 42.4501C5.31156 42.4501 5.11956 42.3701 4.97756 42.2301C4.83556 42.0901 4.75554 41.8901 4.75554 41.6901C4.75554 41.4901 4.83556 41.3001 4.97756 41.1601C5.11956 41.0201 5.31156 40.9361 5.51256 40.9361C5.71256 40.9361 5.90554 41.0201 6.04754 41.1601C6.18954 41.3001 6.26854 41.4901 6.26854 41.6901C6.26854 41.8901 6.18954 42.0901 6.04754 42.2301C5.90554 42.3701 5.71256 42.4501 5.51256 42.4501ZM10.1435 35.9841L11.2215 34.9061L12.2876 35.9841L11.2215 37.0501L10.1435 35.9841ZM12.2876 33.8401L13.3075 32.8201L14.3845 33.8861L13.3646 34.9061L12.2876 33.8401ZM7.99956 38.1271L9.07753 37.0501L10.1435 38.1271L9.07753 39.1931L7.99956 38.1271ZM33.0705 26.3661L33.7465 27.7191C34.2315 27.4731 34.6996 27.1931 35.1456 26.8821L34.2626 25.6441C33.8976 25.9111 33.5145 26.1521 33.1165 26.3661H33.0705ZM35.3396 24.7271L36.3946 25.8161C36.8075 25.4361 37.1905 25.0261 37.5405 24.5891L36.3256 23.6831C36.0446 24.0551 35.7335 24.4041 35.3975 24.7271H35.3396ZM30.4105 27.1801L30.6406 28.6812C31.1816 28.6022 31.7145 28.4751 32.2335 28.3031L31.7746 26.8591C31.3306 27.0051 30.8735 27.1121 30.4105 27.1801Z" fill="white"/>
</g>
<defs>
<clipPath id="clip0">
<rect width="48" height="48" fill="white"/>
</clipPath>
</defs>
</svg>
