<svg width="496" height="496" viewBox="0 0 496 496" fill="none" xmlns="http://www.w3.org/2000/svg">
<path d="M488 248C488 380.547 380.547 488 248 488C115.453 488 8 380.547 8 248C8 115.453 115.453 8 248 8C380.547 8 488 115.453 488 248Z" fill="#8FD8FA"/>
<path d="M472 40C472 48.8008 464.801 56 456 56C451.602 56 447.602 54.2383 444.719 51.2812C441.762 48.3984 440 44.3984 440 40C440 31.1992 447.199 24 456 24C464.801 24 472 31.1992 472 40Z" fill="#FBD268"/>
<path d="M262.288 8C249.222 8 236.444 9.30453 224 11.6721C327.635 31.3928 406.424 129.66 406.424 247.999C406.424 366.337 327.635 464.604 224 484.328C236.444 486.695 249.222 488 262.288 488C384.184 488 483 380.548 483 247.999C483 115.452 384.184 8 262.288 8Z" fill="#6BCDFE"/>
<path d="M392 120C392 128.801 384.801 136 376 136C367.199 136 360 128.801 360 120C360 116.559 361.039 113.441 362.879 110.801C365.84 106.719 370.641 104 376 104C380.398 104 384.398 105.762 387.281 108.719C390.238 111.602 392 115.602 392 120Z" fill="#FBD268"/>
<path d="M309.121 73.1992C306.16 77.2812 301.359 80 296 80C287.199 80 280 72.8008 280 64C280 55.1992 287.199 48 296 48C304.801 48 312 55.1992 312 64C312 67.4414 310.961 70.5586 309.121 73.1992Z" fill="#FBD268"/>
<path d="M449.359 449.359C453.602 453.602 456 459.359 456 465.359C456 471.602 453.441 477.281 449.359 481.359C445.281 485.441 439.602 488 433.359 488C427.359 488 421.602 485.602 417.359 481.359L323.359 387.359C335.922 378.719 346.719 367.922 355.359 355.359L449.359 449.359Z" fill="#F5F7FA"/>
<path d="M280 288H344C344 336.641 304.641 376 256 376C207.359 376 168 336.641 168 288C168 239.359 207.359 200 256 200C264.32 200 272.398 201.121 280 203.281V288Z" fill="#F5F7FA"/>
<path d="M408 160H440V288H408V160Z" fill="#F58A97"/>
<path d="M344 208H376V288H344V208Z" fill="#F58A97"/>
<path d="M312 160V288H280V160H312Z" fill="#F58A97"/>
<path d="M323.359 387.359C304.16 400.32 280.961 408 256 408C253.281 408 250.641 407.922 248 407.68C224.078 406.16 202 397.52 184 384C158.879 365.039 141.359 336.559 137.039 303.84C136.32 298.719 136 293.359 136 288C136 257.281 147.602 229.199 166.641 208C186.961 185.281 215.68 170.398 248 168.32C250.641 168.078 253.281 168 256 168C264.238 168 272.238 168.801 280 170.398V203.281C272.398 201.121 264.32 200 256 200C207.359 200 168 239.359 168 288C168 336.641 207.359 376 256 376C304.641 376 344 336.641 344 288H376C376 312.961 368.32 336.16 355.359 355.359C346.719 367.922 335.922 378.719 323.359 387.359Z" fill="#AEE69C"/>
<path d="M248 112V168.32C215.68 170.398 186.961 185.281 166.641 208H40V304H136L137.039 303.84C141.359 336.559 158.879 365.039 184 384H8V112H248Z" fill="#F5F7FA"/>
<path d="M136 288C136 293.359 136.32 298.719 137.039 303.84L136 304H40V208H166.641C147.602 229.199 136 257.281 136 288V288Z" fill="#F58A97"/>
<path d="M248 72V112H8V72C8 58.7188 18.7188 48 32 48H224C237.281 48 248 58.7188 248 72Z" fill="#FFE179"/>
<path d="M248 408V424C248 437.281 237.281 448 224 448H32C18.7188 448 8 437.281 8 424V384H184C202 397.52 224.078 406.16 248 407.68V408Z" fill="#FFE179"/>
<path d="M428.879 417.566C472.168 371.434 496 311.473 496 248C496 182.496 470.434 122.887 428.801 78.5117L445.719 61.5938C448.848 63.0977 452.305 64 456 64C469.23 64 480 53.2305 480 40C480 26.7695 469.23 16 456 16C442.77 16 432 26.7695 432 40C432 43.6953 432.902 47.1523 434.406 50.2812L417.488 67.1992C373.113 25.5664 313.504 0 248 0C199.816 0 153.23 13.8711 113.039 40H32C14.3516 40 0 54.3516 0 72V424C0 441.648 14.3516 456 32 456H112.938C153.137 482.16 199.824 496 248 496C295.625 496 341.672 482.414 381.551 456.863L411.711 487.023C417.504 492.816 425.191 496 433.367 496C450.266 496 464 482.266 464 465.367C464 457.191 460.816 449.496 455.023 443.711L428.879 417.566ZM456 32C460.406 32 464 35.5938 464 40C464 44.4062 460.406 48 456 48C451.594 48 448 44.4062 448 40C448 35.5938 451.594 32 456 32ZM248 16C309.09 16 364.703 39.7773 406.184 78.5039L386.289 98.3984C383.152 96.9023 379.695 96 376 96C370.809 96 366.031 97.6953 362.105 100.504L319.039 70.3594C319.602 68.3203 320 66.2148 320 64C320 50.7695 309.23 40 296 40C282.77 40 272 50.7695 272 64C272 77.2305 282.77 88 296 88C301.191 88 305.969 86.3047 309.895 83.4961L352.961 113.641C352.398 115.68 352 117.785 352 120C352 133.23 362.77 144 376 144C389.23 144 400 133.23 400 120C400 116.305 399.098 112.848 397.594 109.719L417.488 89.8242C456.223 131.297 480 186.91 480 248C480 307.199 457.832 363.145 417.559 406.246L365.406 354.098C375.816 336.93 382.281 317.176 383.594 296H464V280H448V152H400V280H384V200H336V280H320V152H272V161.113C266.695 160.457 261.359 160 256 160V72C256 54.3516 241.648 40 224 40H145.391C177.145 24.3047 212.078 16 248 16V16ZM376 112C380.406 112 384 115.594 384 120C384 124.406 380.406 128 376 128C371.594 128 368 124.406 368 120C368 115.594 371.594 112 376 112ZM296 72C291.594 72 288 68.4062 288 64C288 59.5938 291.594 56 296 56C300.406 56 304 59.5938 304 64C304 68.4062 300.406 72 296 72ZM256 400C194.238 400 144 349.762 144 288C144 226.238 194.238 176 256 176C261.367 176 266.703 176.52 272 177.273V193.383C266.727 192.504 261.383 192 256 192C203.062 192 160 235.062 160 288C160 340.938 203.062 384 256 384C306.23 384 347.504 345.191 351.594 296H367.594C363.465 354.023 315.055 400 256 400ZM240 161.113C209.953 164.887 183.152 179.078 163.289 200H32V312H130.336C131.375 317.465 132.777 322.801 134.488 328H32V344H141.078C146.855 355.793 154.344 366.574 163.289 376H16V120H240V161.113ZM128 288C128 290.703 128.238 293.344 128.406 296H48V216H150.258C136.23 236.527 128 261.32 128 288ZM304 280H288V168H304V280ZM256 280V296H335.594C331.566 336.367 297.406 368 256 368C211.887 368 176 332.113 176 288C176 243.887 211.887 208 256 208C261.406 208 266.742 208.727 272 209.793V280H256ZM368 280H352V216H368V280ZM432 280H416V168H432V280ZM32 56H224C232.824 56 240 63.1758 240 72V104H16V72C16 63.1758 23.1758 56 32 56ZM16 424V392H181.664C198.535 404.098 218.426 412.184 240 414.887V424C240 432.824 232.824 440 224 440H32C23.1758 440 16 432.824 16 424ZM248 480C212.121 480 177.176 471.68 145.434 456H224C241.648 456 256 441.648 256 424V416C280.199 416 302.77 409.129 322.098 397.406L369.93 445.238C333.32 467.91 291.375 480 248 480V480ZM433.367 480C429.465 480 425.793 478.48 423.023 475.711L335.473 388.16C343.137 382.07 350.063 375.137 356.16 367.473L443.719 455.031C446.48 457.793 448 461.465 448 465.367C448 473.441 441.441 480 433.367 480Z" fill="black"/>
<path d="M88 408H168V424H88V408Z" fill="black"/>
<path d="M32 136H48V152H32V136Z" fill="black"/>
<path d="M64 136H80V152H64V136Z" fill="black"/>
<path d="M96 136H112V152H96V136Z" fill="black"/>
<path d="M128 136H224V152H128V136Z" fill="black"/>
<path d="M32 168H128V184H32V168Z" fill="black"/>
<path d="M144 168H160V184H144V168Z" fill="black"/>
</svg>
