<svg width="48" height="47" viewBox="0 0 48 47" fill="none" xmlns="http://www.w3.org/2000/svg">
<path d="M24.2299 34.1499C24.8049 34.1549 25.358 34.3659 25.789 34.7459L26.8199 33.6C26.4369 33.254 25.9889 32.9889 25.5019 32.8189C25.0149 32.6489 24.498 32.5789 23.983 32.6119C23.468 32.6449 22.965 32.7809 22.504 33.0119C22.043 33.2429 21.632 33.5629 21.297 33.9559C20.606 34.7489 20.255 35.783 20.319 36.834C20.383 37.884 20.8579 38.867 21.6399 39.571C22.3499 40.213 23.2729 40.5679 24.2299 40.5679C25.1869 40.5679 26.1099 40.213 26.8199 39.571L25.789 38.4249C25.561 38.6379 25.292 38.802 24.999 38.907C24.706 39.012 24.3939 39.0559 24.0829 39.0369C23.7719 39.0179 23.468 38.935 23.19 38.795C22.912 38.654 22.665 38.4579 22.465 38.2189C22.253 37.9799 22.0889 37.7009 21.9839 37.3989C21.8789 37.0959 21.835 36.7759 21.854 36.4569C21.873 36.1369 21.9549 35.8249 22.0959 35.5369C22.2359 35.2489 22.432 34.992 22.672 34.781C23.097 34.388 23.6509 34.1639 24.2299 34.1499Z" fill="white"/>
<path d="M29.3176 34.4482L30.7616 33.8522C30.4256 32.9862 29.9206 32.1952 29.2756 31.5262C28.6316 30.8572 27.8596 30.3222 27.0066 29.9542C26.1536 29.5862 25.2346 29.3922 24.3056 29.3822C23.3766 29.3732 22.4546 29.5482 21.5936 29.8992C19.8526 30.6342 18.4696 32.0232 17.7436 33.7682C17.0166 35.5132 17.0046 37.4732 17.7096 39.2272C18.0456 40.0932 18.5506 40.8842 19.1946 41.5532C19.8396 42.2232 20.6116 42.7572 21.4646 43.1252C22.3176 43.4932 23.2356 43.6872 24.1656 43.6972C25.0946 43.7062 26.0166 43.5312 26.8766 43.1812C27.7576 42.8172 28.5546 42.2792 29.2226 41.6002C29.8896 40.9202 30.4136 40.1132 30.7616 39.2272L29.3176 38.6312C29.0556 39.3052 28.6616 39.9202 28.1586 40.4412C27.6566 40.9612 27.0566 41.3772 26.3916 41.6642C25.7276 41.9502 25.0136 42.1022 24.2906 42.1112C23.5666 42.1202 22.8496 41.9852 22.1786 41.7142C20.8226 41.1412 19.7456 40.0592 19.1796 38.7002C18.6146 37.3412 18.6046 35.8142 19.1536 34.4482C19.4146 33.7752 19.8076 33.1602 20.3086 32.6402C20.8106 32.1202 21.4106 31.7052 22.0736 31.4192C22.7366 31.1332 23.4506 30.9822 24.1736 30.9752C24.8956 30.9682 25.6126 31.1042 26.2816 31.3772C26.9676 31.6582 27.5906 32.0752 28.1126 32.6032C28.6346 33.1312 29.0446 33.7582 29.3176 34.4482Z" fill="white"/>
<path d="M46.9429 33.3588H40.6749C40.5729 33.3578 40.4709 33.3778 40.3759 33.4178C40.2819 33.4568 40.1959 33.5148 40.1249 33.5888L38.0049 35.7428H24.2529V37.3358H38.0049L40.1249 39.4898C40.1959 39.5648 40.2809 39.6248 40.3749 39.6668C40.4699 39.7078 40.5719 39.7298 40.6749 39.7308H46.9429C47.0469 39.7298 47.1499 39.7078 47.2449 39.6668C47.3409 39.6248 47.4269 39.5658 47.4989 39.4908C47.5719 39.4168 47.6289 39.3288 47.6669 39.2318C47.7049 39.1358 47.7239 39.0328 47.7229 38.9288V34.1498C47.7229 33.9418 47.6409 33.7428 47.4949 33.5948C47.3489 33.4468 47.1509 33.3618 46.9429 33.3588ZM46.1529 38.1378H40.9959L39.4369 36.5798L40.9959 34.9868H46.1529V38.1378ZM7.00586 26.9878H8.56387V31.7668H7.00586V26.9878Z" fill="white"/>
<path d="M44.5933 31.767V25.487C44.5843 24.615 44.2892 23.77 43.7523 23.083C43.2163 22.395 42.4693 21.903 41.6253 21.682L38.3252 20.845V20.33C38.8122 19.988 39.2092 19.533 39.4832 19.004C39.7562 18.475 39.8973 17.888 39.8953 17.293V12.709C39.8953 11.463 39.4002 10.268 38.5192 9.38699C37.6372 8.50499 36.4422 8.01001 35.1963 8.01001C33.9503 8.01001 32.7553 8.50499 31.8743 9.38699C30.9933 10.268 30.4983 11.463 30.4983 12.709V13.66L27.3582 12.858V12.342C27.8482 11.998 28.2473 11.54 28.5213 11.006C28.7953 10.473 28.9342 9.88201 28.9282 9.28201V4.69901C28.9282 3.45201 28.4332 2.25701 27.5522 1.37601C26.6702 0.495007 25.4752 0 24.2292 0C22.9832 0 21.7882 0.495007 20.9072 1.37601C20.0262 2.25701 19.5312 3.45201 19.5312 4.69901V9.28201C19.5302 9.87601 19.6722 10.461 19.9452 10.987C20.2192 11.514 20.6152 11.967 21.1012 12.308V12.824L17.9263 13.66V12.686C17.9263 12.069 17.8052 11.458 17.5692 10.888C17.3332 10.318 16.9863 9.80001 16.5503 9.36401C16.1143 8.92701 15.5962 8.581 15.0262 8.345C14.4562 8.109 13.8453 7.98801 13.2283 7.98801C12.6113 7.98801 12.0003 8.109 11.4303 8.345C10.8603 8.581 10.3423 8.92701 9.90527 9.36401C9.46927 9.80001 9.12326 10.318 8.88726 10.888C8.65126 11.458 8.52926 12.069 8.52926 12.686V17.27C8.53626 17.862 8.68526 18.445 8.96526 18.967C9.24426 19.49 9.64524 19.938 10.1342 20.272V20.788L6.83324 21.682C5.98024 21.906 5.22626 22.406 4.68926 23.105C4.15126 23.804 3.86226 24.662 3.86526 25.544V31.767H5.43526V25.487C5.43626 24.962 5.61124 24.452 5.93224 24.038C6.25424 23.623 6.70427 23.327 7.21127 23.195L11.1082 22.209C11.2782 22.162 11.4292 22.06 11.5362 21.919C11.6442 21.779 11.7032 21.607 11.7042 21.43V19.814C11.7022 19.667 11.6603 19.524 11.5843 19.399C11.5073 19.274 11.3982 19.172 11.2682 19.104C10.9232 18.929 10.6323 18.662 10.4303 18.332C10.2283 18.002 10.1212 17.623 10.1222 17.236V12.652C10.0962 12.224 10.1583 11.796 10.3043 11.393C10.4503 10.99 10.6762 10.622 10.9702 10.31C11.2642 9.998 11.6183 9.74899 12.0113 9.57999C12.4043 9.40999 12.8282 9.32199 13.2562 9.32199C13.6852 9.32199 14.1093 9.40999 14.5023 9.57999C14.8953 9.74899 15.2493 9.998 15.5433 10.31C15.8363 10.622 16.0633 10.99 16.2093 11.393C16.3553 11.796 16.4173 12.224 16.3913 12.652V17.236C16.3923 17.623 16.2852 18.002 16.0832 18.332C15.8802 18.662 15.5903 18.929 15.2453 19.104C15.1153 19.172 15.0063 19.274 14.9293 19.399C14.8523 19.524 14.8113 19.667 14.8093 19.814V21.407C14.8083 21.584 14.8663 21.757 14.9743 21.898C15.0823 22.039 15.2343 22.141 15.4053 22.186L19.2902 23.172C19.7962 23.308 20.2443 23.606 20.5673 24.019C20.8893 24.433 21.0692 24.94 21.0782 25.464H22.6363C22.6243 24.6 22.3312 23.764 21.8022 23.082C21.2732 22.4 20.5362 21.908 19.7032 21.682L16.4022 20.845V20.33C16.8912 19.979 17.2862 19.513 17.5522 18.974C17.8182 18.434 17.9473 17.837 17.9263 17.236V15.299L18.1442 15.207L22.0402 14.222C22.2102 14.174 22.3593 14.072 22.4643 13.931C22.5703 13.79 22.6263 13.618 22.6253 13.442V11.849C22.6253 11.704 22.5863 11.561 22.5123 11.435C22.4373 11.31 22.3293 11.208 22.2013 11.139C21.8553 10.969 21.5633 10.704 21.3613 10.376C21.1583 10.047 21.0523 9.66801 21.0553 9.28201V4.69901C21.0553 4.288 21.1363 3.88101 21.2933 3.50101C21.4503 3.12201 21.6812 2.77699 21.9712 2.48599C22.2622 2.19599 22.6073 1.965 22.9863 1.808C23.3663 1.651 23.7733 1.57001 24.1833 1.57001C24.5942 1.57001 25.0012 1.651 25.3812 1.808C25.7602 1.965 26.1053 2.19599 26.3963 2.48599C26.6863 2.77699 26.9172 3.12201 27.0742 3.50101C27.2312 3.88101 27.3122 4.288 27.3122 4.69901V9.28201C27.3152 9.66801 27.2092 10.047 27.0062 10.376C26.8032 10.704 26.5123 10.969 26.1663 11.139C26.0373 11.208 25.9302 11.31 25.8552 11.435C25.7812 11.561 25.7412 11.704 25.7422 11.849V13.442C25.7402 13.618 25.7972 13.79 25.9022 13.931C26.0082 14.072 26.1573 14.174 26.3263 14.222L30.2233 15.207L30.4402 15.276V17.236C30.4342 17.83 30.5723 18.418 30.8443 18.947C31.1153 19.476 31.5123 19.931 31.9993 20.272V20.788L28.7562 21.682C27.9242 21.903 27.1863 22.387 26.6533 23.063C26.1203 23.738 25.8202 24.569 25.7992 25.429H27.3582C27.3642 24.906 27.5413 24.399 27.8623 23.986C28.1823 23.572 28.6292 23.274 29.1342 23.137L33.0303 22.152C33.2023 22.106 33.3533 22.005 33.4613 21.864C33.5693 21.723 33.6272 21.55 33.6262 21.373V19.814C33.6242 19.667 33.5832 19.524 33.5062 19.399C33.4302 19.274 33.3212 19.172 33.1912 19.104C32.8452 18.929 32.5553 18.662 32.3533 18.332C32.1503 18.002 32.0443 17.623 32.0452 17.236V12.652C32.0193 12.224 32.0813 11.796 32.2273 11.393C32.3723 10.99 32.5992 10.622 32.8932 10.31C33.1862 9.998 33.5413 9.74899 33.9343 9.57999C34.3273 9.40999 34.7513 9.32199 35.1793 9.32199C35.6073 9.32199 36.0312 9.40999 36.4242 9.57999C36.8182 9.74899 37.1723 9.998 37.4653 10.31C37.7593 10.622 37.9863 10.99 38.1323 11.393C38.2773 11.796 38.3393 12.224 38.3133 12.652V17.236C38.3143 17.623 38.2082 18.002 38.0052 18.332C37.8032 18.662 37.5133 18.929 37.1673 19.104C37.0373 19.172 36.9283 19.274 36.8523 19.399C36.7753 19.524 36.7343 19.667 36.7323 19.814V21.407C36.7333 21.584 36.7923 21.756 36.8993 21.897C37.0073 22.037 37.1572 22.139 37.3282 22.186L41.2243 23.172C41.7323 23.304 42.1823 23.6 42.5033 24.015C42.8253 24.429 43.0003 24.939 43.0003 25.464V31.767H44.5933Z" fill="white"/>
<path d="M39.8956 26.988H41.4536V31.767H39.8956V26.988ZM1.06955 37.187L4.17557 39.445C4.30757 39.539 4.46556 39.59 4.62756 39.59C4.79056 39.59 4.94857 39.539 5.08057 39.445L8.01456 37.336H14.0646C14.1966 39.775 15.2026 42.085 16.8986 43.842C18.5946 45.599 20.8676 46.686 23.3006 46.903C25.7336 47.12 28.1626 46.454 30.1436 45.025C32.1246 43.596 33.5236 41.501 34.0856 39.124L32.5726 38.734C32.3006 39.839 31.8126 40.879 31.1366 41.794C30.4606 42.709 29.6106 43.482 28.6346 44.067C27.6586 44.652 26.5766 45.037 25.4506 45.202C24.3256 45.367 23.1776 45.307 22.0756 45.026C19.8476 44.416 17.9486 42.953 16.7906 40.954C15.6326 38.956 15.3086 36.581 15.8876 34.345C16.3396 32.473 17.4086 30.809 18.9216 29.618C20.4346 28.427 22.3046 27.78 24.2296 27.78C26.1556 27.78 28.0246 28.427 29.5376 29.618C31.0506 30.809 32.1196 32.473 32.5726 34.345L34.0856 33.955C33.7676 32.649 33.1946 31.419 32.3976 30.336C31.6016 29.254 30.5976 28.34 29.4456 27.648C28.2926 26.956 27.0146 26.5 25.6846 26.306C24.3546 26.112 22.9996 26.184 21.6976 26.518C19.6276 27.074 17.7826 28.262 16.4196 29.915C15.0556 31.568 14.2406 33.605 14.0876 35.743H8.03757L5.10358 33.634C4.97158 33.54 4.81257 33.489 4.65057 33.489C4.48857 33.489 4.33057 33.54 4.19757 33.634L1.06955 35.926C0.98055 35.988 0.904558 36.067 0.846558 36.159C0.788558 36.25 0.749575 36.353 0.732575 36.46C0.715575 36.567 0.720552 36.677 0.746552 36.782C0.772552 36.887 0.820566 36.986 0.886566 37.072C0.935566 37.144 0.99755 37.207 1.06955 37.256V37.187ZM4.65656 35.262L6.46756 36.58L4.65656 37.817L2.88055 36.58L4.65656 35.262Z" fill="white"/>
</svg>
