<svg width="50" height="32" viewBox="0 0 50 32" fill="none" xmlns="http://www.w3.org/2000/svg">
<path d="M31.1315 8.89446V6.19316C31.124 4.54797 30.4757 2.97279 29.3285 1.81218C28.1813 0.651568 26.6287 0 25.0101 0C23.3916 0 21.8389 0.651568 20.6917 1.81218C19.5445 2.97279 18.8963 4.54797 18.8887 6.19316V8.89446C18.8963 10.5397 19.5445 12.1148 20.6917 13.2754C21.8389 14.4361 23.3916 15.0876 25.0101 15.0876C26.6287 15.0876 28.1813 14.4361 29.3285 13.2754C30.4757 12.1148 31.124 10.5397 31.1315 8.89446ZM20.5016 8.89446V6.19316C20.5081 4.98207 20.986 3.82283 21.8308 2.96878C22.6756 2.11474 23.8186 1.63533 25.0101 1.63533C26.2016 1.63533 27.3446 2.11474 28.1895 2.96878C29.0343 3.82283 29.5121 4.98207 29.5186 6.19316V8.89446C29.5121 10.1056 29.0343 11.2648 28.1895 12.1188C27.3446 12.9729 26.2016 13.4523 25.0101 13.4523C23.8186 13.4523 22.6756 12.9729 21.8308 12.1188C20.986 11.2648 20.5081 10.1056 20.5016 8.89446V8.89446Z" fill="white"/>
<path d="M15.1435 32H34.8777C35.0916 32 35.2967 31.9136 35.4479 31.7599C35.5992 31.6061 35.6841 31.3976 35.6841 31.1802V29.2987H49.1936C49.4074 29.2987 49.6126 29.2123 49.7638 29.0586C49.915 28.9049 50 28.6964 50 28.4789V23.1583C49.9991 21.5971 49.4136 20.0948 48.3624 18.9565C47.3112 17.8183 45.8731 17.1295 44.3403 17.03C43.9102 16.9979 43.6891 17.2747 43.5098 17.497C43.153 17.9401 42.7014 18.2946 42.1895 18.5334C41.6775 18.7722 41.1186 18.8891 40.5555 18.8751C39.9923 18.8611 39.4397 18.7166 38.9398 18.4527C38.4399 18.1888 38.0059 17.8123 37.6708 17.352C37.5938 17.2461 37.4929 17.1606 37.3765 17.1027C37.2601 17.0448 37.1317 17.0163 37.0022 17.0196C35.9545 17.0435 34.9315 17.3469 34.0356 17.8993C33.4441 17.2002 32.7206 16.6289 31.9079 16.2191C31.0953 15.8094 30.2099 15.5696 29.3044 15.514C28.8878 15.4968 28.677 15.754 28.4729 16.0059C28.0542 16.5259 27.5243 16.9419 26.9235 17.2222C26.3227 17.5025 25.6669 17.6397 25.0061 17.6233C24.3452 17.6069 23.6968 17.4373 23.1102 17.1276C22.5235 16.8178 22.0143 16.376 21.6211 15.8358C21.5442 15.7297 21.4433 15.6441 21.3269 15.5863C21.2104 15.5284 21.082 15.5 20.9524 15.5035C19.1838 15.5451 17.502 16.2908 16.269 17.5802C16.1671 17.6861 16.0704 17.7958 15.9762 17.9071C15.1435 17.3918 14.1997 17.0906 13.2266 17.0297C12.798 16.9976 12.5753 17.2744 12.3961 17.4967C12.0393 17.9398 11.5878 18.2943 11.0758 18.5331C10.5638 18.7719 10.005 18.8888 9.44183 18.8748C8.87869 18.8608 8.32612 18.7164 7.82623 18.4524C7.32634 18.1885 6.89233 17.812 6.55726 17.3517C6.48015 17.2459 6.37916 17.1605 6.26279 17.1027C6.14642 17.0448 6.01808 17.0162 5.88858 17.0193C4.31333 17.0601 2.81608 17.7247 1.71604 18.8716C0.616004 20.0184 0.000225789 21.5566 0 23.1583V28.4789C0 28.6964 0.0849656 28.9049 0.236205 29.0586C0.387444 29.2123 0.592567 29.2987 0.806452 29.2987H14.3371V31.1802C14.3371 31.3976 14.4221 31.6061 14.5733 31.7599C14.7245 31.9136 14.9297 32 15.1435 32V32ZM36.6578 18.685C37.155 19.2587 37.7663 19.7185 38.4513 20.0341C39.1364 20.3498 39.8795 20.514 40.6316 20.516C41.3837 20.518 42.1277 20.3577 42.8143 20.0457C43.501 19.7338 44.1146 19.2772 44.6148 18.7062C45.6635 18.867 46.6207 19.4046 47.3129 20.2215C48.005 21.0383 48.3861 22.0803 48.3871 23.1583V27.6592H35.6841V22.4005C35.685 21.3089 35.4295 20.2328 34.9388 19.2617C35.4658 18.9494 36.0514 18.7529 36.6578 18.685V18.685ZM20.6048 17.1679C21.1624 17.824 21.8522 18.3508 22.6274 18.7125C23.4026 19.0742 24.2452 19.2625 25.0982 19.2646C25.9512 19.2666 26.7947 19.0824 27.5716 18.7244C28.3485 18.3665 29.0407 17.843 29.6013 17.1896C30.8396 17.3637 31.9742 17.987 32.7958 18.9447C33.6174 19.9024 34.0706 21.1298 34.0718 22.4005V30.3605H15.95V22.4005C15.958 21.0994 16.437 19.8468 17.2955 18.8817C18.154 17.9166 19.3321 17.3065 20.6048 17.1679V17.1679ZM1.6129 27.6592V23.1583C1.61972 22.0539 2.023 20.9899 2.74701 20.1664C3.47102 19.3428 4.46593 18.8162 5.54489 18.6856C6.04209 19.259 6.65336 19.7187 7.33829 20.0342C8.02323 20.3497 8.76624 20.5138 9.51822 20.5158C10.2702 20.5177 11.014 20.3574 11.7005 20.0455C12.387 19.7336 13.0006 19.2771 13.5007 18.7062C14.0559 18.7906 14.5902 18.9822 15.0746 19.2707C14.5884 20.2399 14.3356 21.3126 14.3371 22.4005V27.6592H1.6129Z" fill="white"/>
<path d="M46.0149 11.3365V8.97196C46.0149 7.50041 45.4398 6.08913 44.4161 5.04858C43.3924 4.00803 42.004 3.42346 40.5563 3.42346C39.1085 3.42346 37.7201 4.00803 36.6964 5.04858C35.6728 6.08913 35.0977 7.50041 35.0977 8.97196V11.3365C35.0977 12.808 35.6728 14.2193 36.6964 15.2599C37.7201 16.3004 39.1085 16.885 40.5563 16.885C42.004 16.885 43.3924 16.3004 44.4161 15.2599C45.4398 14.2193 46.0149 12.808 46.0149 11.3365V11.3365ZM36.7106 11.3365V8.97196C36.7106 7.93522 37.1157 6.94094 37.8369 6.20786C38.5581 5.47477 39.5363 5.06293 40.5563 5.06293C41.5762 5.06293 42.5544 5.47477 43.2756 6.20786C43.9968 6.94094 44.402 7.93522 44.402 8.97196V11.3365C44.402 12.3732 43.9968 13.3675 43.2756 14.1006C42.5544 14.8337 41.5762 15.2455 40.5563 15.2455C39.5363 15.2455 38.5581 14.8337 37.8369 14.1006C37.1157 13.3675 36.7106 12.3732 36.7106 11.3365V11.3365Z" fill="white"/>
<path d="M14.9016 11.3365V8.97196C14.9016 8.24332 14.7604 7.52182 14.4861 6.84864C14.2117 6.17547 13.8097 5.56381 13.3028 5.04858C12.7959 4.53335 12.1942 4.12465 11.5319 3.84582C10.8696 3.56698 10.1598 3.42346 9.44298 3.42346C8.72614 3.42346 8.01633 3.56698 7.35406 3.84582C6.69179 4.12465 6.09004 4.53335 5.58316 5.04858C5.07628 5.56381 4.67421 6.17547 4.39989 6.84864C4.12557 7.52182 3.98437 8.24332 3.98438 8.97196V11.3365C3.98437 12.0651 4.12557 12.7866 4.39989 13.4598C4.67421 14.133 5.07628 14.7446 5.58316 15.2599C6.09004 15.7751 6.69179 16.1838 7.35406 16.4626C8.01633 16.7415 8.72614 16.885 9.44298 16.885C10.1598 16.885 10.8696 16.7415 11.5319 16.4626C12.1942 16.1838 12.7959 15.7751 13.3028 15.2599C13.8097 14.7446 14.2117 14.133 14.4861 13.4598C14.7604 12.7866 14.9016 12.0651 14.9016 11.3365V11.3365ZM5.59728 11.3365V8.97196C5.59728 7.93522 6.00245 6.94094 6.72366 6.20786C7.44487 5.47477 8.42303 5.06293 9.44298 5.06293C10.4629 5.06293 11.4411 5.47477 12.1623 6.20786C12.8835 6.94094 13.2887 7.93522 13.2887 8.97196V11.3365C13.2887 11.8498 13.1892 12.3581 12.9959 12.8324C12.8027 13.3067 12.5194 13.7376 12.1623 14.1006C11.8052 14.4636 11.3812 14.7515 10.9147 14.948C10.4481 15.1444 9.948 15.2455 9.44298 15.2455C8.93795 15.2455 8.43787 15.1444 7.97129 14.948C7.50471 14.7515 7.08076 14.4636 6.72366 14.1006C6.36655 13.7376 6.08328 13.3067 5.89001 12.8324C5.69675 12.3581 5.59728 11.8498 5.59728 11.3365V11.3365Z" fill="white"/>
</svg>
