<svg width="512" height="512" viewBox="0 0 512 512" fill="none" xmlns="http://www.w3.org/2000/svg">
<path d="M7.5 469.868V206.548C7.5 187.422 23.005 171.916 42.132 171.916H469.869C488.995 171.916 504.501 187.421 504.501 206.548V469.868C504.501 488.994 488.996 504.5 469.869 504.5H42.132C23.005 504.5 7.5 488.995 7.5 469.868V469.868Z" fill="#F7F6F7"/>
<path d="M469.867 171.917H439.867C458.994 171.917 474.499 187.422 474.499 206.548V469.868C474.499 488.995 458.994 504.5 439.867 504.5H469.867C488.994 504.5 504.499 488.995 504.499 469.868V206.548C504.499 187.421 488.994 171.917 469.867 171.917Z" fill="#EDEBED"/>
<path d="M256 366.008C292.693 366.008 322.439 336.059 322.439 299.115C322.439 262.171 292.693 232.222 256 232.222C219.306 232.222 189.561 262.171 189.561 299.115C189.561 336.059 219.306 366.008 256 366.008Z" fill="#FF8086"/>
<path d="M256 232.222C250.839 232.222 245.823 232.834 241 233.955C270.465 240.805 292.439 267.367 292.439 299.115C292.439 330.863 270.465 357.425 241 364.275C245.823 365.396 250.839 366.008 256 366.008C292.693 366.008 322.439 336.059 322.439 299.115C322.439 262.171 292.693 232.222 256 232.222V232.222Z" fill="#E5646E"/>
<path d="M252.002 269.988L278.132 296.296C279.681 297.856 279.681 300.374 278.132 301.934L252.002 328.242C249.486 330.775 245.164 328.993 245.164 325.423V272.806C245.164 269.236 249.487 267.455 252.002 269.988V269.988Z" fill="white"/>
<path d="M144.981 459.873C159.277 459.873 170.866 448.205 170.866 433.811C170.866 419.417 159.277 407.749 144.981 407.749C130.685 407.749 119.096 419.417 119.096 433.811C119.096 448.205 130.685 459.873 144.981 459.873Z" fill="#FF8086"/>
<path d="M144.98 407.749C140.682 407.749 136.632 408.81 133.064 410.677C141.362 415.018 147.034 423.745 147.034 433.811C147.034 443.877 141.362 452.604 133.064 456.946C136.632 458.813 140.682 459.874 144.98 459.874C159.276 459.874 170.865 448.206 170.865 433.812C170.866 419.417 159.276 407.749 144.98 407.749Z" fill="#E5646E"/>
<path d="M475.933 7.5H310.24C294.462 7.5 281.672 20.29 281.672 36.068V156.055C281.672 171.833 294.462 184.623 310.24 184.623H339.337C347.226 184.623 353.621 191.018 353.621 198.907V220.693C353.621 223.238 356.698 224.513 358.498 222.713L392.404 188.807C395.083 186.128 398.716 184.623 402.504 184.623H475.932C491.71 184.623 504.5 171.833 504.5 156.055V36.068C504.501 20.29 491.711 7.5 475.933 7.5V7.5Z" fill="#A4CCFF"/>
<path d="M475.934 7.5H445.934C461.712 7.5 474.502 20.291 474.502 36.068V156.054C474.502 171.832 461.712 184.622 445.934 184.622H475.934C491.712 184.622 504.502 171.831 504.502 156.054V36.068C504.502 20.291 491.712 7.5 475.934 7.5V7.5Z" fill="#8BB3EA"/>
<path d="M36.068 7.5H201.76C217.538 7.5 230.328 20.29 230.328 36.068V156.055C230.328 171.833 217.538 184.623 201.76 184.623H172.663C164.774 184.623 158.379 191.018 158.379 198.907V220.693C158.379 223.238 155.302 224.513 153.502 222.713L119.596 188.807C116.917 186.128 113.284 184.623 109.496 184.623H36.068C20.29 184.623 7.5 171.833 7.5 156.055V36.068C7.5 20.29 20.29 7.5 36.068 7.5V7.5Z" fill="#B3E59F"/>
<path d="M201.762 7.5H171.762C187.54 7.5 200.33 20.291 200.33 36.068V156.054C200.33 171.832 187.54 184.622 171.762 184.622H201.762C217.54 184.622 230.33 171.831 230.33 156.054V36.068C230.33 20.291 217.539 7.5 201.762 7.5V7.5Z" fill="#95D6A4"/>
<path d="M52.5 126.062H185.329C189.471 126.062 192.829 122.704 192.829 118.562C192.829 114.42 189.471 111.062 185.329 111.062H52.5C48.358 111.062 45 114.42 45 118.562C45 122.704 48.358 126.062 52.5 126.062ZM144.98 400.249C129.136 400.249 115.845 411.404 112.445 426.31H65.52C61.378 426.31 58.02 429.668 58.02 433.81C58.02 437.952 61.378 441.31 65.52 441.31H112.445C115.844 456.217 129.136 467.373 144.98 467.373C160.824 467.373 174.116 456.216 177.515 441.31H452.23C456.372 441.31 459.73 437.952 459.73 433.81C459.73 429.668 456.372 426.31 452.23 426.31H177.515C174.115 411.404 160.824 400.249 144.98 400.249V400.249ZM144.98 452.374C134.842 452.374 126.594 444.047 126.594 433.812C126.594 423.577 134.842 415.25 144.98 415.25C155.118 415.25 163.365 423.577 163.365 433.812C163.365 444.047 155.118 452.374 144.98 452.374ZM52.5 81.062H185.329C189.471 81.062 192.829 77.704 192.829 73.562C192.829 69.42 189.471 66.062 185.329 66.062H52.5C48.358 66.062 45 69.42 45 73.562C45 77.704 48.358 81.062 52.5 81.062V81.062ZM203.699 246.529C200.78 249.468 200.796 254.217 203.735 257.135C206.673 260.053 211.422 260.038 214.341 257.099C225.471 245.892 240.265 239.721 255.999 239.721C288.498 239.721 314.938 266.365 314.938 299.114C314.938 331.863 288.498 358.507 255.999 358.507C223.5 358.507 197.06 331.863 197.06 299.114C197.06 293.84 197.745 288.613 199.095 283.577C200.168 279.577 197.794 275.463 193.793 274.39C189.797 273.32 185.679 275.69 184.606 279.692C182.916 285.994 182.059 292.528 182.059 299.114C182.059 340.135 215.228 373.507 255.998 373.507C296.768 373.507 329.937 340.134 329.937 299.114C329.937 258.094 296.77 224.722 256 224.722C236.24 224.722 217.666 232.466 203.699 246.529ZM459.5 66.062H326.671C322.529 66.062 319.171 69.42 319.171 73.562C319.171 77.704 322.529 81.062 326.671 81.062H459.5C463.642 81.062 467 77.704 467 73.562C467 69.42 463.642 66.062 459.5 66.062ZM459.5 111.062H326.671C322.529 111.062 319.171 114.42 319.171 118.562C319.171 122.704 322.529 126.062 326.671 126.062H459.5C463.642 126.062 467 122.704 467 118.562C467 114.42 463.642 111.062 459.5 111.062ZM504.5 90.367C508.642 90.367 512 87.009 512 82.867V36.068C512 16.18 495.82 0 475.932 0H310.239C290.351 0 274.171 16.18 274.171 36.068V156.054C274.171 158.934 274.52 161.733 275.161 164.419H236.839C237.48 161.732 237.829 158.934 237.829 156.054V36.068C237.829 16.18 221.649 0 201.761 0H36.068C16.18 0 0 16.18 0 36.068V156.054C0 165.322 3.516 173.783 9.282 180.178C3.318 187.59 0 196.834 0 206.55V469.87C0 493.101 18.899 512 42.13 512H469.87C493.1 512 512 493.101 512 469.87V206.55C512 196.835 508.682 187.591 502.718 180.179C508.483 173.783 512 165.323 512 156.055V117.867C512 113.725 508.642 110.367 504.5 110.367C500.358 110.367 497 113.725 497 117.867V156.055C497 167.672 487.549 177.123 475.932 177.123H402.504C396.685 177.123 391.214 179.389 387.1 183.503L361.121 209.482V198.906C361.121 186.894 351.349 177.122 339.337 177.122H310.24C298.623 177.122 289.172 167.671 289.172 156.054V36.068C289.172 24.451 298.623 15 310.24 15H475.932C487.549 15 497 24.451 497 36.068V82.866C497 87.009 500.358 90.367 504.5 90.367V90.367ZM15 36.068C15 24.451 24.451 15 36.068 15H201.76C213.377 15 222.828 24.451 222.828 36.068V156.054C222.828 167.671 213.377 177.122 201.76 177.122H172.663C160.651 177.122 150.879 186.894 150.879 198.906V209.482L124.9 183.503C120.786 179.389 115.315 177.123 109.496 177.123H36.068C24.451 177.123 15 167.672 15 156.055V36.068ZM310.239 192.123H339.336C343.077 192.123 346.12 195.166 346.12 198.907V220.693C346.12 224.897 348.63 228.652 352.514 230.261C356.357 231.853 360.812 231.005 363.801 228.016L397.707 194.11C398.988 192.829 400.692 192.123 402.504 192.123H475.932C481.139 192.123 486.088 191.005 490.563 189.01C494.694 193.873 497.001 200.049 497.001 206.55V469.87C497.001 484.829 484.831 497 469.871 497H42.13C27.17 497 15 484.83 15 469.87V206.55C15 200.049 17.307 193.874 21.438 189.01C25.913 191.005 30.861 192.123 36.069 192.123H109.497C111.309 192.123 113.013 192.829 114.294 194.11L148.2 228.016C151.189 231.007 155.64 231.855 159.487 230.261C163.371 228.652 165.881 224.896 165.881 220.693V198.907C165.881 195.166 168.924 192.123 172.665 192.123H201.762C212.742 192.123 222.586 187.185 229.206 179.42H282.796C289.416 187.185 299.259 192.123 310.239 192.123ZM257.325 333.527L283.455 307.219C287.893 302.75 287.893 295.48 283.455 291.011L257.325 264.703C254.03 261.385 249.106 260.393 244.783 262.175C240.459 263.957 237.665 268.131 237.665 272.807V325.423C237.665 330.1 240.459 334.273 244.783 336.055C249.058 337.817 254.012 336.864 257.325 333.527ZM252.666 281.297L270.363 299.114L252.666 316.931V281.297Z" fill="black"/>
</svg>
